<?xml version="1.0" encoding="utf-8"?>
<svg width="32px" height="32px" viewBox="0 0 32 32" version="1.1" xmlns:xlink="http://www.w3.org/1999/xlink" xmlns="http://www.w3.org/2000/svg">
  <g id="icon">
    <path d="M0 0L32 0L32 32L0 32L0 0Z" id="Background" fill="#3E89D7" fill-rule="evenodd" stroke="none" />
    <path d="M13.2085 16.2955C13.2085 15.7198 13.0065 15.2299 12.6024 14.8258C12.1933 14.4218 11.7009 14.2197 11.1251 14.2197C10.5494 14.2197 10.0569 14.4218 9.64782 14.8258C9.24377 15.2299 9.04175 15.7198 9.04175 16.2955C9.04175 16.8663 9.24377 17.3536 9.64782 17.7577C10.0569 18.1617 10.5494 18.3638 11.1251 18.3638C11.7009 18.3638 12.1933 18.1617 12.6024 17.7577C13.0065 17.3536 13.2085 16.8663 13.2085 16.2955M25.3831 19.6291L25.3528 19.6291L21.8906 19.9625C21.7997 19.9726 21.7239 20.0105 21.6633 20.0761C21.5976 20.1367 21.5648 20.215 21.5648 20.311L21.4512 21.8262L18.4359 22.0383L18.2314 20.6367C18.2162 20.5458 18.1733 20.4701 18.1026 20.4095C18.0319 20.3489 17.9511 20.3185 17.8602 20.3185L14.201 20.3185C14.1101 20.3185 14.0318 20.3489 13.9661 20.4095C13.8954 20.4701 13.85 20.5458 13.8298 20.6367L13.6328 22.0383L10.61 21.8262L10.5115 20.311C10.5014 20.215 10.4635 20.1367 10.3979 20.0761C10.3372 20.0105 10.2615 19.9726 10.1706 19.9625L6.70837 19.6291L6.67806 19.6291L6.67806 14.0154C6.29927 13.5406 5.86491 12.9244 5.375 12.1668C5.85986 11.3587 6.49624 10.5279 7.28414 9.67434C7.92052 9.99252 8.55437 10.3587 9.1857 10.7728L9.65541 10.3486L10.1478 9.9698C10.2842 9.86878 10.4585 9.75262 10.6706 9.6213L11.2009 9.29554C11.1049 8.56825 11.0469 7.79298 11.0267 6.96972C11.8348 6.56567 12.7818 6.24243 13.8676 6C14.2313 6.61113 14.5823 7.29044 14.9207 8.03793L16.0268 7.9546L16.0419 7.9546L17.148 8.03793C17.4763 7.31569 17.8248 6.63638 18.1935 6C19.2794 6.24243 20.2289 6.56567 21.0421 6.96972C21.0219 7.80813 20.9638 8.5834 20.8678 9.29554L21.3981 9.6213L21.9133 9.9698L22.4057 10.3486C22.5926 10.5001 22.7492 10.6415 22.8754 10.7728C23.5068 10.3587 24.1406 9.99252 24.777 9.67434C25.57 10.5178 26.2063 11.3486 26.6861 12.1668C26.2518 12.8588 25.8174 13.4749 25.3831 14.0154L25.3831 19.6291M16.0344 18.561C16.2212 18.561 16.3778 18.5004 16.5041 18.3792C16.6354 18.263 16.701 18.1191 16.701 17.9473L16.701 16.0382C16.701 15.8715 16.6354 15.7301 16.5041 15.614C16.3778 15.4927 16.2212 15.4321 16.0344 15.4321C15.8424 15.4321 15.6833 15.4927 15.5571 15.614C15.4258 15.7301 15.3601 15.8715 15.3601 16.0382L15.3601 17.9473C15.3601 18.1191 15.4258 18.263 15.5571 18.3792C15.6833 18.5004 15.8424 18.561 16.0344 18.561M18.8525 16.2955C18.8525 16.8663 19.0546 17.3536 19.4586 17.7577C19.8677 18.1617 20.3602 18.3638 20.9359 18.3638C21.5117 18.3638 22.0041 18.1617 22.4132 17.7577C22.8173 17.3536 23.0193 16.8663 23.0193 16.2955C23.0193 15.7198 22.8173 15.2299 22.4132 14.8258C22.0041 14.4218 21.5117 14.2197 20.9359 14.2197C20.3602 14.2197 19.8677 14.4218 19.4586 14.8258C19.0546 15.2299 18.8525 15.7198 18.8525 16.2955M6.67798 20.3716L9.77654 20.667L9.89018 22.205C9.89523 22.2959 9.93311 22.3742 10.0038 22.4398C10.0644 22.5004 10.1427 22.5358 10.2387 22.5459L13.9206 22.8035C14.0165 22.8085 14.1024 22.7807 14.1782 22.7201C14.2539 22.6595 14.2994 22.5812 14.3145 22.4853L14.5267 21.061L17.5419 21.061L17.7464 22.4853C17.7616 22.5762 17.8045 22.6519 17.8752 22.7125C17.9409 22.7732 18.0217 22.8035 18.1177 22.8035L18.148 22.8035L21.8299 22.5459C21.9208 22.5358 21.9991 22.5004 22.0647 22.4398C22.1304 22.3742 22.1657 22.2959 22.1708 22.205L22.2844 20.667L25.383 20.3716L25.383 21.1443C25.383 22.71 24.4714 23.9247 22.6481 24.7884C20.9814 25.5864 18.7793 25.9904 16.0419 26.0005L16.0267 26.0005C13.2943 25.9904 11.0897 25.5864 9.4129 24.7884C7.58962 23.9247 6.67798 22.71 6.67798 21.1443L6.67798 20.3716M12.7086 16.4172C12.7086 16.801 12.5747 17.1268 12.3071 17.3945C12.0343 17.6621 11.706 17.796 11.3222 17.796C10.9434 17.796 10.6176 17.6621 10.3449 17.3945C10.0772 17.1268 9.94336 16.801 9.94336 16.4172C9.94336 16.0384 10.0772 15.7151 10.3449 15.4474C10.6176 15.1697 10.9434 15.0308 11.3222 15.0308C11.706 15.0308 12.0343 15.1697 12.3071 15.4474C12.5747 15.7151 12.7086 16.0384 12.7086 16.4172M19.3601 16.4172C19.3601 16.0384 19.4939 15.7151 19.7616 15.4474C20.0293 15.1697 20.3551 15.0308 20.7389 15.0308C21.1228 15.0308 21.4485 15.1697 21.7162 15.4474C21.9839 15.7151 22.1178 16.0384 22.1178 16.4172C22.1178 16.801 21.9839 17.1268 21.7162 17.3945C21.4485 17.6621 21.1228 17.796 20.7389 17.796C20.3551 17.796 20.0293 17.6621 19.7616 17.3945C19.4939 17.1268 19.3601 16.801 19.3601 16.4172" id="Shape" fill="#FFFFFF" fill-rule="evenodd" stroke="none" />
  </g>
</svg>