<?xml version="1.0" encoding="utf-8"?>
<svg width="56" height="56" viewBox="0 0 56 56" fill="none" xmlns="http://www.w3.org/2000/svg">
  <g id="icon_default_project_icon">
    <path id="Vector" d="M46.4297 0C51.7159 0 56 4.28406 56 9.57031L56 46.4297C56 51.7159 51.7159 56 46.4297 56L9.57031 56C4.28406 56 0 51.7159 0 46.4297L0 9.57031C0 4.28406 4.28406 0 9.57031 0L46.4297 0Z" fill="#131313" fill-rule="evenodd" />
    <g id="icon" transform="translate(15.148 23.898)">
      <path id="Vector" d="M4.94118 0C2.21222 0 0 2.21227 0 4.94118C0 7.67009 2.21222 9.88236 4.94118 9.88236C7.67014 9.88236 9.88236 7.67009 9.88236 4.94118C9.88236 2.21227 7.67014 0 4.94118 0C4.94118 0 4.94118 0 4.94118 0C4.94118 0 4.94118 0 4.94118 0ZM20.8006 0C18.0716 0 15.8594 2.21227 15.8594 4.94118C15.8594 7.67009 18.0716 9.88236 20.8006 9.88236C23.5295 9.88236 25.7417 7.67009 25.7417 4.94118C25.7417 2.21227 23.5295 0 20.8006 0C20.8006 0 20.8006 0 20.8006 0C20.8006 0 20.8006 0 20.8006 0Z" fill="#EEEEEE" fill-rule="evenodd" />
    </g>
  </g>
</svg>
