<?xml version="1.0" encoding="utf-8"?>
<svg width="16px" height="16px" viewBox="0 0 16 16" version="1.1" xmlns:xlink="http://www.w3.org/1999/xlink" xmlns="http://www.w3.org/2000/svg">
  <g id="icon_godot">
    <path d="M0 0L16 0L16 16L0 16L0 0Z" id="Rectangle" fill="#000000" fill-rule="evenodd" stroke="none" />
    <path d="M6.23199 4.18823C6.23199 4.08426 6.14773 4 6.04376 4L4.44375 4C4.33978 4 4.25552 4.08426 4.25552 4.18823L4.25552 4.75294C4.25552 4.85692 4.33978 4.94118 4.44375 4.94118L4.53787 4.94118L4.53787 5.41177L3.22022 5.41177C3.01227 5.41177 2.84375 5.58029 2.84375 5.78824L2.84375 10.6824C2.84375 10.8903 3.01227 11.0588 3.22022 11.0588L3.97316 11.0588L3.97316 11.8118C3.97316 11.9157 4.05742 12 4.1614 12L6.23199 12C6.33596 12 6.42022 11.9157 6.42022 11.8118L6.42022 11.0588L9.62022 11.0588L9.62022 11.8118C9.62022 11.9157 9.70448 12 9.80846 12L11.8791 12C11.983 12 12.0673 11.9157 12.0673 11.8118L12.0673 11.0588L12.8202 11.0588C13.0282 11.0588 13.1967 10.8903 13.1967 10.6824L13.1967 5.78824C13.1967 5.58029 13.0282 5.41177 12.8202 5.41177L11.5967 5.41177L11.5967 4.94118L11.6908 4.94118C11.7948 4.94118 11.8791 4.85692 11.8791 4.75294L11.8791 4.18823C11.8791 4.08426 11.7948 4 11.6908 4L10.0908 4C9.98684 4 9.90258 4.08426 9.90258 4.18823L9.90258 4.75294C9.90258 4.85692 9.98684 4.94118 10.0908 4.94118L10.1849 4.94118L10.1849 5.41177L5.94963 5.41177L5.94963 4.94118L6.04376 4.94118C6.14773 4.94118 6.23199 4.85692 6.23199 4.75294L6.23199 4.18823L6.23199 4.18823ZM5.7614 6.82353C4.9817 6.82353 4.34963 7.45561 4.34963 8.2353C4.34963 9.01499 4.9817 9.64706 5.7614 9.64706C6.5411 9.64706 7.17316 9.01499 7.17316 8.2353C7.17316 7.45561 6.5411 6.82353 5.7614 6.82353L5.7614 6.82353ZM10.279 6.82352C9.49935 6.82352 8.86728 7.45559 8.86728 8.23528C8.86728 9.01497 9.49935 9.64705 10.279 9.64705C11.0587 9.64705 11.6908 9.01497 11.6908 8.23528C11.6908 7.45559 11.0587 6.82352 10.279 6.82352L10.279 6.82352Z" id="Vector" fill="#FFFFFF" fill-rule="evenodd" stroke="none" />
    <path d="M14.122 13.8125L14.5636 14.2538L15.003 13.8146L15.3424 14.1538L14.9029 14.5931L15.3438 15.0337L15.0044 15.3729L14.5636 14.9323L14.1206 15.375L13.7813 15.0358L14.2242 14.5931L13.7826 14.1517L14.122 13.8125L14.122 13.8125Z" id="Vector" fill="#FFFFFF" fill-rule="evenodd" stroke="none" />
  </g>
</svg>