<?xml version="1.0" encoding="utf-8"?>
<svg width="187px" height="68.99951px" viewBox="0 0 187 68.99951" version="1.1" xmlns:xlink="http://www.w3.org/1999/xlink" xmlns="http://www.w3.org/2000/svg">
  <g id="icon_logo">
    <path d="M0 0L187 0L187 68.9996L0 68.9996L0 0Z" id="Rectangle" fill="none" fill-rule="evenodd" stroke="none" />
    <g id="naiive_trans_dark" transform="matrix(1.0000006 0 0 1.0000006 134 45)">
      <path d="M0 0L10.25 0L10.25 10.2501L0 10.2501L0 0L0 0Z" id="Rectangle" fill="#000000" fill-rule="evenodd" stroke="none" />
      <path d="M2.55052 2.50741L5.13704 4.7511L7.72356 2.5107L8.18001 2.95615L8.18001 7.29581L7.72356 7.74268L5.13704 5.49899L2.55285 7.74268L2.09408 7.44352L2.09408 2.95615L2.55052 2.50741L2.55052 2.50741ZM2.70268 6.90804L4.66725 5.21059L2.70268 3.51313L2.70268 6.90804L2.70268 6.90804L2.70268 6.90804ZM5.61404 5.21058L7.57142 3.51935L7.57142 6.90183L5.61404 5.21058L5.61404 5.21058L5.61404 5.21058Z" id="Vector" fill="#FFFFFF" fill-rule="evenodd" stroke="none" />
    </g>
    <g id="Group" transform="matrix(1.0000006 0 0 1.0000006 42 14)">
      <path d="M0 0L10.25 0L10.25 10.2493L0 10.2493L0 0Z" id="Rectangle" fill="#3E7AB5" fill-rule="evenodd" stroke="none" />
      <path d="M7.69928 6.35407C7.71335 6.86202 7.43193 7.25388 6.85503 7.52966C6.41603 7.74212 5.83772 7.84976 5.12012 7.85258L5.11378 7.85258C4.39618 7.84976 3.81787 7.74212 3.37886 7.52966C2.79915 7.25388 2.51633 6.86202 2.5304 6.35407L2.5304 4.73948L2.2708 4.35536C2.23703 4.30471 2.21944 4.24913 2.21803 4.18862C2.21803 4.12671 2.23281 4.06973 2.26235 4.01767C2.38899 3.8038 2.55714 3.585 2.76679 3.36128C2.81604 3.30781 2.87584 3.27475 2.94619 3.26208C3.01654 3.24942 3.08408 3.25927 3.14881 3.29163C3.24308 3.33947 3.33806 3.39153 3.43374 3.44781L3.48651 3.40349L3.49917 3.39716L3.6047 3.31907C3.59485 3.19525 3.58852 3.06721 3.5857 2.93495C3.5843 2.87163 3.59978 2.81324 3.63214 2.75977C3.6645 2.7063 3.70812 2.6655 3.763 2.63735C3.97968 2.52901 4.23366 2.44248 4.52492 2.37775C4.59106 2.36228 4.65649 2.36861 4.72121 2.39675C4.78594 2.42348 4.83589 2.4671 4.87106 2.5276C4.93016 2.6261 4.98715 2.73163 5.04202 2.84419L5.11167 2.84208L5.12012 2.84208L5.19188 2.84419C5.24535 2.73444 5.30163 2.62891 5.36072 2.5276C5.3959 2.46851 5.44585 2.42489 5.51058 2.39675C5.5739 2.36861 5.64073 2.36228 5.71109 2.37775C5.99954 2.44248 6.25281 2.52901 6.4709 2.63735C6.52578 2.6655 6.5701 2.7063 6.60387 2.75977C6.63483 2.81324 6.65031 2.87233 6.65031 2.93706L6.6292 3.32118L6.73051 3.39294L6.74106 3.39927L6.80016 3.44781C6.89443 3.39153 6.98941 3.33947 7.08509 3.29163C7.14841 3.25927 7.21525 3.24942 7.2856 3.26208C7.35595 3.27475 7.41575 3.30781 7.465 3.36128C7.67325 3.58359 7.84139 3.80309 7.96944 4.01978C8.00039 4.07043 8.01517 4.12671 8.01376 4.18862C8.01376 4.24631 7.99758 4.30119 7.96521 4.35325C7.87798 4.49395 7.79003 4.6234 7.70139 4.74159L7.70139 5.87919L7.69928 5.91507L7.69928 6.35407M7.37426 5.99305L7.37426 4.63599C7.47979 4.50374 7.58532 4.35459 7.69085 4.18857C7.57407 3.99159 7.41999 3.78968 7.22863 3.58285C7.07385 3.66024 6.92048 3.74958 6.76852 3.85089C6.73897 3.81712 6.70098 3.78265 6.65454 3.74747L6.53424 3.65672L6.40971 3.5723L6.28307 3.4921C6.30559 3.32185 6.31966 3.13472 6.32529 2.93071C6.1283 2.83362 5.89894 2.75553 5.63723 2.69644C5.54717 2.8498 5.46345 3.01442 5.38606 3.1903L5.11591 3.16919L5.11168 3.16919L4.84575 3.1903C4.76414 3.00879 4.67971 2.84417 4.59247 2.69644C4.33076 2.75553 4.1014 2.83362 3.90441 2.93071C3.91004 3.1305 3.92482 3.31763 3.94874 3.4921L3.81788 3.5723L3.69546 3.65672L3.57516 3.74747C3.52872 3.78265 3.49003 3.81712 3.45907 3.85089C3.30852 3.74958 3.15585 3.66024 3.00107 3.58285C2.80971 3.78968 2.65563 3.99159 2.53885 4.18857C2.65704 4.37148 2.76187 4.52062 2.85333 4.63599L2.85333 5.99305L2.86177 5.99305L3.69968 6.07114C3.72079 6.07395 3.73908 6.0831 3.75456 6.09858C3.76863 6.11405 3.77707 6.13305 3.77989 6.15556L3.80521 6.52279L4.53549 6.57344L4.58403 6.23365C4.58825 6.21254 4.59881 6.19496 4.61569 6.18089C4.63258 6.16682 4.65157 6.15978 4.67268 6.15978L5.55702 6.15978C5.57813 6.15978 5.59713 6.16682 5.61401 6.18089C5.63089 6.19496 5.64145 6.21254 5.64567 6.23365L5.69632 6.57344L6.42449 6.52279L6.45192 6.15556C6.45192 6.13305 6.45966 6.11405 6.47514 6.09858C6.49062 6.0831 6.50891 6.07395 6.53002 6.07114L7.36793 5.99305L7.37426 5.99305M4.43432 5.18489C4.43432 5.3228 4.38507 5.44172 4.28656 5.54164C4.18806 5.63875 4.06915 5.6873 3.92983 5.6873C3.79052 5.6873 3.67161 5.63875 3.5731 5.54164C3.476 5.44172 3.42745 5.3228 3.42745 5.18489C3.42745 5.04697 3.476 4.92876 3.5731 4.83025C3.67161 4.73314 3.79052 4.68459 3.92983 4.68459C4.06915 4.68459 4.18806 4.73314 4.28656 4.83025C4.38507 4.92876 4.43432 5.04697 4.43432 5.18489M5.11383 5.73137C5.07023 5.73137 5.03225 5.7173 4.99989 5.68916C4.96895 5.66102 4.95347 5.62655 4.95347 5.58575L4.95347 5.12357C4.95347 5.08277 4.96895 5.0483 4.99989 5.02017C5.03225 4.99062 5.07023 4.97585 5.11383 4.97585C5.15884 4.97585 5.19683 4.99062 5.22777 5.02017C5.26013 5.0483 5.2763 5.08277 5.2763 5.12357L5.2763 5.58575C5.2763 5.62655 5.26013 5.66102 5.22777 5.68916C5.19683 5.7173 5.15884 5.73137 5.11383 5.73137M5.79564 5.18489C5.79564 5.04697 5.84489 4.92876 5.94339 4.83025C6.04188 4.73314 6.16078 4.68459 6.30008 4.68459C6.43939 4.68459 6.55828 4.73314 6.65678 4.83025C6.75387 4.92876 6.80242 5.04697 6.80242 5.18489C6.80242 5.3228 6.75387 5.44172 6.65678 5.54164C6.55828 5.63875 6.43939 5.6873 6.30008 5.6873C6.16078 5.6873 6.04188 5.63875 5.94339 5.54164C5.84489 5.44172 5.79564 5.3228 5.79564 5.18489M7.37427 6.17037L6.625 6.24213L6.59757 6.6136C6.59757 6.63471 6.58983 6.653 6.57435 6.66848C6.55606 6.68537 6.53636 6.69451 6.51525 6.69592L5.62458 6.75924L5.61825 6.75924C5.59433 6.75924 5.57463 6.7522 5.55915 6.73813C5.54227 6.72406 5.53242 6.70506 5.5296 6.68114L5.47895 6.33711L4.7529 6.33711L4.70014 6.68114C4.69732 6.70506 4.68607 6.72406 4.66637 6.73813C4.64948 6.75361 4.62908 6.76065 4.60516 6.75924L3.71449 6.69592C3.69197 6.69451 3.67298 6.68537 3.6575 6.66848C3.64061 6.653 3.63217 6.63471 3.63217 6.6136L3.60262 6.24213L2.85336 6.17037L2.85336 6.35822C2.85336 6.73672 3.07427 7.03081 3.51609 7.24047C3.91992 7.43324 4.45179 7.53033 5.1117 7.53174L5.11592 7.53174C5.77725 7.53033 6.30982 7.43324 6.71365 7.24047C7.15406 7.03081 7.37427 6.73672 7.37427 6.35822L7.37427 6.17037" id="Outline" fill="#FFFFFF" fill-rule="evenodd" stroke="none" />
    </g>
    <g id="Group" transform="matrix(0.99999994 0 0 0.99999994 52 14)">
      <g id="Group" transform="scale(1.0000006 1.0000006)">
        <path d="M0 0L41.0452 0L41.0452 41.0381L0 41.0381L0 0Z" id="Rectangle" fill="#000000" fill-rule="evenodd" stroke="none" />
        <path d="M16.0705 10.741C16.0705 10.4745 15.8533 10.2586 15.5866 10.2586L11.4815 10.2586C11.2145 10.2586 10.9984 10.4745 10.9984 10.741L10.9984 12.1894C10.9984 12.4563 11.2145 12.6726 11.4815 12.6726L11.7236 12.6726L11.7236 13.8796L8.34259 13.8796C7.80837 13.8796 7.37657 14.3118 7.37657 14.8452L7.37657 27.3963C7.37657 27.9293 7.80837 28.3623 8.34259 28.3623L10.2744 28.3623L10.2744 30.2934C10.2744 30.56 10.4905 30.7758 10.757 30.7758L16.0705 30.7758C16.3368 30.7758 16.553 30.56 16.553 30.2934L16.553 28.3623L24.7631 28.3623L24.7631 30.2934C24.7631 30.56 24.979 30.7758 25.2456 30.7758L30.5568 30.7758C30.8236 30.7758 31.0402 30.56 31.0402 30.2934L31.0402 28.3623L32.972 28.3623C33.5054 28.3623 33.9372 27.9293 33.9372 27.3963L33.9372 14.8452C33.9372 14.3118 33.5054 13.8796 32.972 13.8796L29.8329 13.8796L29.8329 12.6726L30.0746 12.6726C30.3413 12.6726 30.5568 12.4563 30.5568 12.1894L30.5568 10.741C30.5568 10.4745 30.3413 10.2586 30.0746 10.2586L25.9696 10.2586C25.703 10.2586 25.4868 10.4745 25.4868 10.741L25.4868 12.1894C25.4868 12.4563 25.703 12.6726 25.9696 12.6726L26.2108 12.6726L26.2108 13.8796L15.345 13.8796L15.345 12.6726L15.5866 12.6726C15.8533 12.6726 16.0705 12.4563 16.0705 12.1894L16.0705 10.741L16.0705 10.741ZM14.8598 17.502C12.8612 17.502 11.2391 19.1237 11.2391 21.124C11.2391 23.1255 12.8612 24.7461 14.8598 24.7461C16.8604 24.7461 18.4819 23.1255 18.4819 21.124C18.4819 19.1237 16.8604 17.502 14.8598 17.502L14.8598 17.502ZM26.4387 17.5023C24.4385 17.5023 22.8176 19.1241 22.8176 21.1244C22.8176 23.1258 24.4385 24.7465 26.4387 24.7465C28.4377 24.7465 30.0587 23.1258 30.0587 21.1244C30.0587 19.1241 28.4377 17.5023 26.4387 17.5023L26.4387 17.5023Z" id="Vector" fill="#FFFFFF" fill-rule="evenodd" stroke="none" />
      </g>
      <g id="Group" transform="matrix(1.0000006 0 0 1.0000006 40.996 8.689812E-05)">
        <path d="M0 0L41.0404 0L41.0404 41.0389L0 41.0389L0 0Z" id="Rectangle" fill="#000000" fill-rule="evenodd" stroke="none" />
        <path d="M12.1187 6L20.0467 13.9239L27.9369 6.03798L34.0303 12.1283L26.1402 20.014L34.0551 27.9245L27.9619 34.0148L20.0467 26.104L12.0939 34.0526L6 27.9625L13.9532 20.014L6.02483 12.0902L12.1187 6L12.1187 6Z" id="Vector" fill="#FFFFFF" fill-rule="evenodd" stroke="none" />
      </g>
    </g>
  </g>
</svg>