<?xml version="1.0" encoding="utf-8"?>
<svg width="16" height="16" viewBox="0 0 16 16" fill="none" xmlns="http://www.w3.org/2000/svg">
  <g fill="rgba(170,170,170,0.5)" fill-rule="evenodd">
    <path d="M0 0L9.0863 0L16 16L0 9.15381L0 0Z" />
    <path d="M0 0L0 9.15381L11.9906 14.2844L16 16L14.2702 11.9968L9.0863 0L0 0ZM3 3L3 7.17432L10.2608 10.2813L7.11456 3L3 3Z" fill="#ffffff" fill-rule="evenodd" fill-opacity="0.2" />
    <path d="M0 0L0 9.15381L14.6635 15.4282L16 16L15.4233 14.6655L9.0863 0L0 0ZM1 1L1 8.4939L14.0869 14.0938L8.42902 1L1 1Z" fill="#000000" fill-opacity=".8" />
  </g>
</svg>
