<?xml version="1.0" encoding="utf-8"?>
<svg width="16px" height="16px" viewBox="0 0 16 16" version="1.1" xmlns:xlink="http://www.w3.org/1999/xlink" xmlns="http://www.w3.org/2000/svg">
  <g id="icon">
    <path d="M0 0L16 0L16 16L0 16L0 0Z" id="Background" fill="#3E89D7" fill-rule="evenodd" stroke="none" />
    <path d="M6.60426 8.14786C6.60426 7.85997 6.50325 7.61502 6.30122 7.41299C6.09667 7.21097 5.85045 7.10995 5.56257 7.10995C5.27468 7.10995 5.02846 7.21097 4.82391 7.41299C4.62189 7.61502 4.52088 7.85997 4.52088 8.14786C4.52088 8.43322 4.62189 8.67691 4.82391 8.87894C5.02846 9.08096 5.27468 9.18198 5.56257 9.18198C5.85045 9.18198 6.09667 9.08096 6.30122 8.87894C6.50325 8.67691 6.60426 8.43322 6.60426 8.14786M12.6915 9.81457L12.6764 9.81457L10.9453 9.98124C10.8998 9.98629 10.8619 10.0052 10.8316 10.0381C10.7988 10.0684 10.7824 10.1075 10.7824 10.1555L10.7256 10.9131L9.21797 11.0191L9.11569 10.3184C9.10812 10.2729 9.08665 10.235 9.0513 10.2047C9.01594 10.1744 8.97554 10.1593 8.93008 10.1593L7.10049 10.1593C7.05503 10.1593 7.01589 10.1744 6.98306 10.2047C6.94771 10.235 6.92498 10.2729 6.91488 10.3184L6.81639 11.0191L5.30499 10.9131L5.25575 10.1555C5.2507 10.1075 5.23176 10.0684 5.19893 10.0381C5.16862 10.0052 5.13074 9.98629 5.08529 9.98124L3.35418 9.81457L3.33903 9.81457L3.33903 7.00768C3.14963 6.7703 2.93246 6.46221 2.6875 6.08341C2.92993 5.67936 3.24812 5.26395 3.64207 4.83717C3.96026 4.99626 4.27719 5.17935 4.59285 5.38642L4.82771 5.1743L5.07392 4.9849C5.14211 4.93439 5.22923 4.87631 5.33529 4.81065L5.60045 4.64777C5.55247 4.28412 5.52343 3.89649 5.51333 3.48486C5.91738 3.28284 6.39088 3.12122 6.93382 3C7.11564 3.30556 7.29115 3.64522 7.46035 4.01897L8.01339 3.9773L8.02097 3.9773L8.57401 4.01897C8.73816 3.65785 8.9124 3.31819 9.09675 3C9.6397 3.12122 10.1145 3.28284 10.521 3.48486C10.5109 3.90406 10.4819 4.2917 10.4339 4.64777L10.6991 4.81065L10.9566 4.9849L11.2029 5.1743C11.2963 5.25006 11.3746 5.32077 11.4377 5.38642C11.7534 5.17935 12.0703 4.99626 12.3885 4.83717C12.785 5.2589 13.1032 5.67431 13.3431 6.08341C13.1259 6.42938 12.9087 6.73747 12.6915 7.00768L12.6915 9.81457M8.01718 9.28046C8.11062 9.28046 8.1889 9.25016 8.25204 9.18955C8.31769 9.13147 8.35052 9.0595 8.35052 8.97364L8.35052 8.01907C8.35052 7.93573 8.31769 7.86502 8.25204 7.80694C8.1889 7.74633 8.11062 7.71603 8.01718 7.71603C7.92122 7.71603 7.84167 7.74633 7.77854 7.80694C7.71288 7.86502 7.68005 7.93573 7.68005 8.01907L7.68005 8.97364C7.68005 9.0595 7.71288 9.13147 7.77854 9.18955C7.84167 9.25016 7.92122 9.28046 8.01718 9.28046M9.4263 8.14786C9.4263 8.43322 9.52732 8.67691 9.72934 8.87894C9.93389 9.08096 10.1801 9.18198 10.468 9.18198C10.7559 9.18198 11.0021 9.08096 11.2066 8.87894C11.4087 8.67691 11.5097 8.43322 11.5097 8.14786C11.5097 7.85997 11.4087 7.61502 11.2066 7.41299C11.0021 7.21097 10.7559 7.10995 10.468 7.10995C10.1801 7.10995 9.93389 7.21097 9.72934 7.41299C9.52732 7.61502 9.4263 7.85997 9.4263 8.14786M3.33903 10.1858L4.88831 10.3335L4.94513 11.1025C4.94766 11.1479 4.9666 11.1871 5.00195 11.2199C5.03225 11.2502 5.0714 11.2679 5.11938 11.2729L6.96033 11.4017C7.00831 11.4043 7.05124 11.3904 7.08912 11.3601C7.127 11.3298 7.14973 11.2906 7.15731 11.2426L7.26337 10.5305L8.77098 10.5305L8.87326 11.2426C8.88084 11.2881 8.9023 11.326 8.93765 11.3563C8.97048 11.3866 9.01089 11.4017 9.05887 11.4017L9.07402 11.4017L10.915 11.2729C10.9604 11.2679 10.9996 11.2502 11.0324 11.2199C11.0652 11.1871 11.0829 11.1479 11.0854 11.1025L11.1423 10.3335L12.6915 10.1858L12.6915 10.5722C12.6915 11.355 12.2357 11.9623 11.3241 12.3942C10.4907 12.7932 9.38969 12.9952 8.02097 13.0003L8.01339 13.0003C6.64719 12.9952 5.54489 12.7932 4.70649 12.3942C3.79485 11.9623 3.33903 11.355 3.33903 10.5722L3.33903 10.1858M6.35426 8.20846C6.35426 8.40039 6.28734 8.56327 6.1535 8.69711C6.01713 8.83096 5.85299 8.89788 5.66106 8.89788C5.47167 8.89788 5.30878 8.83096 5.17242 8.69711C5.03857 8.56327 4.97165 8.40039 4.97165 8.20846C4.97165 8.01907 5.03857 7.85745 5.17242 7.7236C5.30878 7.58471 5.47167 7.51527 5.66106 7.51527C5.85299 7.51527 6.01713 7.58471 6.1535 7.7236C6.28734 7.85745 6.35426 8.01907 6.35426 8.20846M9.68011 8.20846C9.68011 8.01907 9.74703 7.85745 9.88087 7.7236C10.0147 7.58471 10.1776 7.51527 10.3695 7.51527C10.5614 7.51527 10.7243 7.58471 10.8582 7.7236C10.992 7.85745 11.0589 8.01907 11.0589 8.20846C11.0589 8.40039 10.992 8.56327 10.8582 8.69711C10.7243 8.83096 10.5614 8.89788 10.3695 8.89788C10.1776 8.89788 10.0147 8.83096 9.88087 8.69711C9.74703 8.56327 9.68011 8.40039 9.68011 8.20846" id="Shape" fill="#FFFFFF" fill-rule="evenodd" stroke="none" />
  </g>
</svg>