<?xml version="1.0" encoding="utf-8"?>
<svg width="64px" height="64px" viewBox="0 0 64 64" version="1.1" xmlns:xlink="http://www.w3.org/1999/xlink" xmlns="http://www.w3.org/2000/svg">
  <defs>
    <linearGradient gradientUnits="objectBoundingBox" x1="0.5" y1="0" x2="0.5" y2="1" id="gradient_1">
      <stop offset="0%" stop-color="#FFFFFF" />
      <stop offset="100%" stop-color="#FFFFFF" />
    </linearGradient>
  </defs>
  <g id="icon_default_project_icon">
    <path d="M0 0L64 0L64 64L0 64L0 0Z" id="Rectangle" fill="#000000" fill-rule="evenodd" stroke="none" />
    <path d="M24.9279 16.7529C24.9279 16.337 24.5909 16 24.175 16L17.775 16C17.3591 16 17.0221 16.337 17.0221 16.7529L17.0221 19.0118C17.0221 19.4277 17.3591 19.7647 17.775 19.7647L18.1515 19.7647L18.1515 21.6471L12.8809 21.6471C12.0491 21.6471 11.375 22.3211 11.375 23.1529L11.375 42.7294C11.375 43.5612 12.0491 44.2353 12.8809 44.2353L15.8926 44.2353L15.8926 47.2471C15.8926 47.6629 16.2297 48 16.6456 48L24.9279 48C25.3438 48 25.6809 47.6629 25.6809 47.2471L25.6809 44.2353L38.4809 44.2353L38.4809 47.2471C38.4809 47.6629 38.8179 48 39.2338 48L47.5162 48C47.9321 48 48.2691 47.6629 48.2691 47.2471L48.2691 44.2353L51.2809 44.2353C52.1127 44.2353 52.7868 43.5612 52.7868 42.7294L52.7868 23.1529C52.7868 22.3211 52.1127 21.6471 51.2809 21.6471L46.3868 21.6471L46.3868 19.7647L46.7632 19.7647C47.1792 19.7647 47.5162 19.4277 47.5162 19.0118L47.5162 16.7529C47.5162 16.337 47.1792 16 46.7632 16L40.3632 16C39.9473 16 39.6103 16.337 39.6103 16.7529L39.6103 19.0118C39.6103 19.4277 39.9473 19.7647 40.3632 19.7647L40.7397 19.7647L40.7397 21.6471L23.7985 21.6471L23.7985 19.7647L24.175 19.7647C24.5909 19.7647 24.9279 19.4277 24.9279 19.0118L24.9279 16.7529L24.9279 16.7529ZM23.0456 27.2941C19.9268 27.2941 17.3985 29.8224 17.3985 32.9412C17.3985 36.0599 19.9268 38.5882 23.0456 38.5882C26.1644 38.5882 28.6926 36.0599 28.6926 32.9412C28.6926 29.8224 26.1644 27.2941 23.0456 27.2941L23.0456 27.2941ZM41.1162 27.2941C37.9974 27.2941 35.4691 29.8224 35.4691 32.9411C35.4691 36.0599 37.9974 38.5882 41.1162 38.5882C44.235 38.5882 46.7632 36.0599 46.7632 32.9411C46.7632 29.8224 44.235 27.2941 41.1162 27.2941L41.1162 27.2941Z" id="Vector" fill="none" fill-rule="evenodd" stroke="url(#gradient_1)" stroke-width="1" />
    <path d="M57.238 56L59.0042 57.7654L60.762 56.0085L62.1194 57.3653L60.3617 59.1222L62.125 60.8847L60.7675 62.2415L59.0042 60.4791L57.2325 62.25L55.875 60.8931L57.6468 59.1222L55.8806 57.3569L57.238 56L57.238 56Z" id="Vector" fill="#FFFFFF" fill-rule="evenodd" stroke="none" />
  </g>
</svg>