<?xml version="1.0" encoding="utf-8"?>
<svg width="16" height="14.002" viewBox="0 0 16 14.002" fill="none" xmlns="http://www.w3.org/2000/svg">
  <path id="icon_panel_fit_width" d="M13.5016 12.0027C13.5016 12.0027 12.7671 12.7121 12.7671 12.7121C12.4691 12.9998 12.4609 13.4746 12.7486 13.7726C13.0364 14.0705 13.5112 14.0788 13.8091 13.7911C13.8091 13.7911 15.6947 11.9701 15.6947 11.9701C16.1017 11.577 16.1017 10.9246 15.6947 10.5315C15.6947 10.5315 13.8091 8.7105 13.8091 8.7105C13.5112 8.4228 13.0364 8.431 12.7486 8.729C12.4609 9.0269 12.4691 9.5017 12.7671 9.7895C12.7671 9.7895 13.5056 10.5027 13.5056 10.5027C13.5056 10.5027 10.75 10.5027 10.75 10.5027C10.3358 10.5027 10 10.8385 10 11.2527C10 11.667 10.3358 12.0027 10.75 12.0027C10.75 12.0027 13.5016 12.0027 13.5016 12.0027L13.5016 12.0027ZM13 0C14.1045 0 15 0.89543 15 2C15 2 15 6.25 15 6.25C15 6.66421 14.6642 7 14.25 7C13.8358 7 13.5 6.66421 13.5 6.25C13.5 6.25 13.5 2 13.5 2C13.5 1.72386 13.2761 1.5 13 1.5C13 1.5 3 1.5 3 1.5C2.72385 1.5 2.5 1.72386 2.5 2C2.5 2 2.5 6.25 2.5 6.25C2.5 6.66421 2.16421 7 1.75 7C1.33578 7 1 6.66421 1 6.25C1 6.25 1 2 1 2C1 0.89543 1.89543 0 3 0C3 0 13 0 13 0C13 0 13 0 13 0ZM3.23289 12.7121L2.49839 12.0027C2.49839 12.0027 5.25 12.0027 5.25 12.0027C5.66422 12.0027 6.00001 11.667 6.00001 11.2527C6.00001 10.8385 5.66422 10.5027 5.25 10.5027C5.25 10.5027 2.49434 10.5027 2.49434 10.5027C2.49434 10.5027 3.23289 9.7895 3.23289 9.7895C3.53085 9.5017 3.53911 9.0269 3.25138 8.729C2.96362 8.431 2.48882 8.4228 2.19088 8.7105C2.19088 8.7105 0.305325 10.5315 0.305325 10.5315C-0.101775 10.9246 -0.101775 11.577 0.305325 11.9701C0.305325 11.9701 2.19088 13.7911 2.19088 13.7911C2.48882 14.0788 2.96362 14.0705 3.25138 13.7726C3.53911 13.4746 3.53085 12.9998 3.23289 12.7121C3.23289 12.7121 3.23289 12.7121 3.23289 12.7121Z" fill="#E0E0E0" />
</svg>
