<?xml version="1.0" encoding="utf-8"?>
<svg width="40px" height="80px" viewBox="0 0 40 80" version="1.1" xmlns:xlink="http://www.w3.org/1999/xlink" xmlns="http://www.w3.org/2000/svg">
  <g id="Group">
    <g id="icon">
      <path d="M0 0L40 0L40 40L0 40L0 0Z" id="Background" fill="#3E89D7" fill-rule="evenodd" stroke="none" />
      <path d="M16.5107 20.3696C16.5107 19.6499 16.2581 19.0375 15.7531 18.5325C15.2417 18.0274 14.6261 17.7749 13.9064 17.7749C13.1867 17.7749 12.5712 18.0274 12.0598 18.5325C11.5547 19.0375 11.3022 19.6499 11.3022 20.3696C11.3022 21.083 11.5547 21.6923 12.0598 22.1973C12.5712 22.7024 13.1867 22.9549 13.9064 22.9549C14.6261 22.9549 15.2417 22.7024 15.7531 22.1973C16.2581 21.6923 16.5107 21.083 16.5107 20.3696M31.7288 24.5364L31.691 24.5364L27.3632 24.9531C27.2496 24.9657 27.1549 25.0131 27.0791 25.0951C26.997 25.1709 26.956 25.2688 26.956 25.3887L26.8139 27.2827L23.0449 27.5479L22.7892 25.7959C22.7703 25.6823 22.7166 25.5876 22.6282 25.5118C22.5399 25.4361 22.4388 25.3982 22.3252 25.3982L17.7512 25.3982C17.6376 25.3982 17.5397 25.4361 17.4577 25.5118C17.3693 25.5876 17.3125 25.6823 17.2872 25.7959L17.041 27.5479L13.2625 27.2827L13.1394 25.3887C13.1267 25.2688 13.0794 25.1709 12.9973 25.0951C12.9216 25.0131 12.8269 24.9657 12.7132 24.9531L8.38546 24.5364L8.34758 24.5364L8.34758 17.5192C7.87408 16.9257 7.33114 16.1555 6.71875 15.2085C7.32483 14.1984 8.1203 13.1599 9.10517 12.0929C9.90065 12.4907 10.693 12.9484 11.4821 13.4661L12.0693 12.9357L12.6848 12.4622C12.8553 12.336 13.0731 12.1908 13.3382 12.0266L14.0011 11.6194C13.8812 10.7103 13.8086 9.74122 13.7833 8.71215C14.7934 8.20709 15.9772 7.80304 17.3345 7.5C17.7891 8.26391 18.2279 9.11305 18.6509 10.0474L20.0335 9.94324L20.0524 9.94324L21.435 10.0474C21.8454 9.14461 22.281 8.29548 22.7419 7.5C24.0992 7.80304 25.2861 8.20709 26.3026 8.71215C26.2773 9.76016 26.2047 10.7292 26.0848 11.6194L26.7477 12.0266L27.3916 12.4622L28.0072 12.9357C28.2408 13.1251 28.4365 13.3019 28.5943 13.4661C29.3835 12.9484 30.1758 12.4907 30.9713 12.0929C31.9624 13.1472 32.7579 14.1858 33.3577 15.2085C32.8147 16.0735 32.2718 16.8437 31.7288 17.5192L31.7288 24.5364M20.043 23.2012C20.2765 23.2012 20.4723 23.1254 20.6301 22.9739C20.7942 22.8287 20.8763 22.6487 20.8763 22.4341L20.8763 20.0477C20.8763 19.8393 20.7942 19.6626 20.6301 19.5173C20.4723 19.3658 20.2765 19.2901 20.043 19.2901C19.803 19.2901 19.6042 19.3658 19.4463 19.5173C19.2822 19.6626 19.2001 19.8393 19.2001 20.0477L19.2001 22.4341C19.2001 22.6487 19.2822 22.8287 19.4463 22.9739C19.6042 23.1254 19.803 23.2012 20.043 23.2012M23.5658 20.3696C23.5658 21.083 23.8183 21.6923 24.3233 22.1973C24.8347 22.7024 25.4503 22.9549 26.17 22.9549C26.8897 22.9549 27.5052 22.7024 28.0166 22.1973C28.5217 21.6923 28.7742 21.083 28.7742 20.3696C28.7742 19.6499 28.5217 19.0375 28.0166 18.5325C27.5052 18.0274 26.8897 17.7749 26.17 17.7749C25.4503 17.7749 24.8347 18.0274 24.3233 18.5325C23.8183 19.0375 23.5658 19.6499 23.5658 20.3696M8.34757 25.4645L12.2208 25.8338L12.3628 27.7562C12.3691 27.8698 12.4165 27.9677 12.5049 28.0498C12.5806 28.1255 12.6785 28.1697 12.7984 28.1823L17.4008 28.5043C17.5208 28.5106 17.6281 28.4759 17.7228 28.4001C17.8175 28.3244 17.8743 28.2265 17.8933 28.1066L18.1584 26.3262L21.9275 26.3262L22.1831 28.1066C22.2021 28.2202 22.2558 28.3149 22.3441 28.3907C22.4262 28.4664 22.5272 28.5043 22.6472 28.5043L22.6851 28.5043L27.2874 28.1823C27.4011 28.1697 27.4989 28.1255 27.581 28.0498C27.6631 27.9677 27.7073 27.8698 27.7136 27.7562L27.8556 25.8338L31.7288 25.4645L31.7288 26.4304C31.7288 28.3875 30.5893 29.9059 28.3102 30.9854C26.2268 31.9829 23.4742 32.488 20.0524 32.5006L20.0335 32.5006C16.618 32.488 13.8622 31.9829 11.7662 30.9854C9.48712 29.9059 8.34757 28.3875 8.34757 26.4304L8.34757 25.4645M15.8857 20.5212C15.8857 21.001 15.7184 21.4082 15.3838 21.7428C15.0428 22.0774 14.6325 22.2447 14.1527 22.2447C13.6792 22.2447 13.272 22.0774 12.931 21.7428C12.5964 21.4082 12.4291 21.001 12.4291 20.5212C12.4291 20.0477 12.5964 19.6436 12.931 19.309C13.272 18.9618 13.6792 18.7882 14.1527 18.7882C14.6325 18.7882 15.0428 18.9618 15.3838 19.309C15.7184 19.6436 15.8857 20.0477 15.8857 20.5212M24.2003 20.5212C24.2003 20.0477 24.3676 19.6436 24.7022 19.309C25.0368 18.9618 25.444 18.7882 25.9238 18.7882C26.4036 18.7882 26.8108 18.9618 27.1454 19.309C27.48 19.6436 27.6473 20.0477 27.6473 20.5212C27.6473 21.001 27.48 21.4082 27.1454 21.7428C26.8108 22.0774 26.4036 22.2447 25.9238 22.2447C25.444 22.2447 25.0368 22.0774 24.7022 21.7428C24.3676 21.4082 24.2003 21.001 24.2003 20.5212" id="Shape" fill="#FFFFFF" fill-rule="evenodd" stroke="none" />
    </g>
    <g id="icon" transform="translate(0 40)">
      <path d="M0 0L40 0L40 40L0 40L0 0Z" id="Rectangle" fill="#000000" fill-rule="evenodd" stroke="none" />
      <path d="M15.58 10.4706C15.58 10.2106 15.3693 9.99999 15.1094 9.99999L11.1094 9.99999C10.8494 9.99999 10.6388 10.2106 10.6388 10.4706L10.6388 11.8823C10.6388 12.1423 10.8494 12.3529 11.1094 12.3529L11.3447 12.3529L11.3447 13.5294L8.05055 13.5294C7.53068 13.5294 7.10938 13.9507 7.10938 14.4706L7.10938 26.7059C7.10938 27.2258 7.53068 27.647 8.05055 27.647L9.9329 27.647L9.9329 29.5294C9.9329 29.7893 10.1436 30 10.4035 30L15.58 30C15.8399 30 16.0506 29.7893 16.0506 29.5294L16.0506 27.647L24.0506 27.647L24.0506 29.5294C24.0506 29.7893 24.2612 30 24.5211 30L29.6976 30C29.9576 30 30.1682 29.7893 30.1682 29.5294L30.1682 27.647L32.0505 27.647C32.5705 27.647 32.9917 27.2258 32.9917 26.7059L32.9917 14.4706C32.9917 13.9507 32.5705 13.5294 32.0505 13.5294L28.9917 13.5294L28.9917 12.3529L29.227 12.3529C29.487 12.3529 29.6976 12.1423 29.6976 11.8823L29.6976 10.4706C29.6976 10.2106 29.487 9.99999 29.227 9.99999L25.227 9.99999C24.9671 9.99999 24.7564 10.2106 24.7564 10.4706L24.7564 11.8823C24.7564 12.1423 24.9671 12.3529 25.227 12.3529L25.4623 12.3529L25.4623 13.5294L14.8741 13.5294L14.8741 12.3529L15.1094 12.3529C15.3693 12.3529 15.58 12.1423 15.58 11.8823L15.58 10.4706L15.58 10.4706ZM14.3888 17.0703C12.4395 17.0703 10.8594 18.6505 10.8594 20.5997C10.8594 22.5489 12.4395 24.1291 14.3888 24.1291C16.338 24.1291 17.9182 22.5489 17.9182 20.5997C17.9182 18.6505 16.338 17.0703 14.3888 17.0703L14.3888 17.0703ZM25.7169 17.0703C23.7677 17.0703 22.1875 18.6505 22.1875 20.5997C22.1875 22.5489 23.7677 24.1291 25.7169 24.1291C27.6662 24.1291 29.2463 22.5489 29.2463 20.5997C29.2463 18.6505 27.6662 17.0703 25.7169 17.0703L25.7169 17.0703Z" id="Vector" fill="#FFFFFF" fill-rule="evenodd" stroke="none" />
    </g>
  </g>
</svg>