<?xml version="1.0" encoding="utf-8"?>
<svg width="16" height="14" viewBox="0 0 16 14" fill="none" xmlns="http://www.w3.org/2000/svg">
  <path id="icon_panel_top" d="M0 3C0 1.34315 1.53503 0 3.42856 0C3.42856 0 12.5714 0 12.5714 0C14.465 0 16 1.34315 16 3C16 3 16 11 16 11C16 12.6569 14.465 14 12.5714 14C12.5714 14 3.42856 14 3.42856 14C1.53503 14 0 12.6569 0 11C0 11 0 3 0 3C0 3 0 3 0 3ZM1.14285 4C1.14285 4 1.14285 11 1.14285 11C1.14285 12.1046 2.1662 13 3.42856 13C3.42856 13 12.5714 13 12.5714 13C13.8338 13 14.8571 12.1046 14.8571 11C14.8571 11 14.8571 4 14.8571 4L1.14285 4L1.14285 4Z" fill="#E0E0E0" />
</svg>
