<?xml version="1.0" encoding="utf-8"?>
<svg width="1024px" height="414px" viewBox="0 0 1024 414" version="1.1" xmlns:xlink="http://www.w3.org/1999/xlink" xmlns="http://www.w3.org/2000/svg">
  <g id="logo">
    <path d="M0 0L1024 0L1024 414L0 414L0 0Z" id="Rectangle" fill="#448AFF" fill-opacity="0" fill-rule="evenodd" stroke="none" />
    <g id="Group" transform="translate(283.4287 91.42808)">
      <g id="Group" transform="scale(1.0000006 1.0000006)">
        <path d="M0 0L228.607 0L228.607 228.598L0 228.598L0 0Z" id="Rectangle" fill="#000000" fill-rule="evenodd" stroke="none" />
        <path d="M89.4955 59.8378C89.4955 58.3524 88.2909 57.1488 86.8056 57.1488L63.9433 57.1488C62.4575 57.1488 61.2538 58.3524 61.2538 59.8378L61.2538 67.906C61.2538 69.3918 62.4575 70.5957 63.9433 70.5957L65.2886 70.5957L65.2886 77.3195L46.4612 77.3195C43.4895 77.3195 41.0822 79.7271 41.0822 82.6982L41.0822 152.622C41.0822 155.593 43.4895 158.001 46.4612 158.001L57.2199 158.001L57.2199 168.758C57.2199 170.244 58.4236 171.447 59.9091 171.447L89.4955 171.447C90.9808 171.447 92.1845 170.244 92.1845 168.758L92.1845 158.001L137.907 158.001L137.907 168.758C137.907 170.244 139.111 171.447 140.596 171.447L170.181 171.447C171.667 171.447 172.871 170.244 172.871 168.758L172.871 158.001L183.629 158.001C186.6 158.001 189.007 155.593 189.007 152.622L189.007 82.6982C189.007 79.7271 186.6 77.3195 183.629 77.3195L166.147 77.3195L166.147 70.5957L167.492 70.5957C168.978 70.5957 170.181 69.3918 170.181 67.906L170.181 59.8378C170.181 58.3524 168.978 57.1488 167.492 57.1488L144.63 57.1488C143.145 57.1488 141.941 58.3524 141.941 59.8378L141.941 67.906C141.941 69.3918 143.145 70.5957 144.63 70.5957L145.975 70.5957L145.975 77.3195L85.4606 77.3195L85.4606 70.5957L86.8056 70.5957C88.2909 70.5957 89.4955 69.3918 89.4955 67.906L89.4955 59.8378L89.4955 59.8378ZM82.7702 97.4909C71.6297 97.4909 62.5984 106.522 62.5984 117.662C62.5984 128.803 71.6297 137.833 82.7702 137.833C93.9109 137.833 102.941 128.803 102.941 117.662C102.941 106.522 93.9109 97.4909 82.7702 97.4909L82.7702 97.4909ZM147.314 97.4939C136.172 97.4939 127.142 106.525 127.142 117.666C127.142 128.807 136.172 137.837 147.314 137.837C158.453 137.837 167.484 128.807 167.484 117.666C167.484 106.525 158.453 97.4939 147.314 97.4939L147.314 97.4939Z" id="Vector" fill="#FFFFFF" fill-rule="evenodd" stroke="none" />
      </g>
      <g id="Group" transform="matrix(1.0000006 0 0 1.0000006 228.56866 0.0004941132)">
        <path d="M0 0L228.604 0L228.604 228.603L0 228.603L0 0Z" id="Rectangle" fill="#000000" fill-rule="evenodd" stroke="none" />
        <path d="M70.0901 36.0151L114.251 80.1544L158.199 36.2269L192.14 70.1523L148.193 114.079L192.279 158.144L158.338 192.07L114.251 148.004L69.9513 192.282L36.011 158.356L80.3086 114.079L36.1498 69.9405L70.0901 36.0151L70.0901 36.0151Z" id="Vector" fill="#FFFFFF" fill-rule="evenodd" stroke="none" />
      </g>
    </g>
    <g id="Group" transform="matrix(1.0000006 0 0 1.0000006 683.4284 319.99994)">
      <path d="M0 0L57.1437 0L57.1437 57.1428L0 57.1428L0 0Z" id="Rectangle" fill="#000000" fill-rule="evenodd" stroke="none" />
      <g id="Group" transform="matrix(1.0000001 0 0 1.0000001 9.007782 9.005325)">
        <path d="M1.22064 9.15527e-05C1.89487 9.15527e-05 2.44128 0.546499 2.44128 1.22073L2.44128 1.22076C2.44128 1.895 1.89487 2.4414 1.22064 2.4414L1.22064 2.4414C0.546408 2.4414 0 1.895 0 1.22076L0 1.22073C0 0.546499 0.546408 9.15527e-05 1.22064 9.15527e-05Z" id="Rectangle" fill="#FFFFFF" stroke="none" />
        <path d="M31.7381 0C32.4123 0 32.9587 0.546408 32.9587 1.22064L32.9587 1.22067C32.9587 1.8949 32.4123 2.44131 31.7381 2.44131L31.7381 2.44131C31.0639 2.44131 30.5175 1.8949 30.5175 1.22067L30.5175 1.22064C30.5175 0.546408 31.0639 0 31.7381 0Z" id="Rectangle" fill="#FFFFFF" stroke="none" />
        <path d="M37.8417 9.15527e-05C38.5159 9.15527e-05 39.0623 0.546499 39.0623 1.22073L39.0623 1.22076C39.0623 1.895 38.5159 2.4414 37.8417 2.4414L37.8417 2.4414C37.1674 2.4414 36.621 1.895 36.621 1.22076L36.621 1.22073C36.621 0.546499 37.1674 9.15527e-05 37.8417 9.15527e-05Z" id="Rectangle" fill="#FFFFFF" stroke="none" />
        <path d="M25.6322 9.15527e-05C26.3065 9.15527e-05 26.8529 0.546506 26.8529 1.22075L26.8529 1.22075C26.8529 1.89499 26.3065 2.4414 25.6322 2.4414L25.6322 2.4414C24.958 2.4414 24.4116 1.89499 24.4116 1.22075L24.4116 1.22075C24.4116 0.546506 24.958 9.15527e-05 25.6322 9.15527e-05L25.6322 9.15527e-05Z" id="Rectangle" fill="#FFFFFF" stroke="none" />
        <path d="M19.5289 9.15527e-05C20.2032 9.15527e-05 20.7496 0.546506 20.7496 1.22075L20.7496 1.22075C20.7496 1.89499 20.2032 2.4414 19.5289 2.4414L19.5289 2.4414C18.8546 2.4414 18.3082 1.89499 18.3082 1.22075L18.3082 1.22075C18.3082 0.546506 18.8546 9.15527e-05 19.5289 9.15527e-05L19.5289 9.15527e-05Z" id="Rectangle" fill="#FFFFFF" stroke="none" />
        <path d="M13.4252 9.15527e-05C14.0994 9.15527e-05 14.6458 0.546506 14.6458 1.22075L14.6458 1.22075C14.6458 1.89499 14.0994 2.4414 13.4252 2.4414L13.4251 2.4414C12.7509 2.4414 12.2045 1.89499 12.2045 1.22075L12.2045 1.22075C12.2045 0.546506 12.7509 9.15527e-05 13.4251 9.15527e-05L13.4252 9.15527e-05Z" id="Rectangle" fill="#FFFFFF" stroke="none" />
        <path d="M7.32397 0C7.99821 0 8.54461 0.546408 8.54461 1.22064L8.54461 1.22067C8.54461 1.8949 7.99821 2.44131 7.32397 2.44131L7.32397 2.44131C6.64974 2.44131 6.10333 1.8949 6.10333 1.22067L6.10333 1.22064C6.10333 0.546408 6.64974 0 7.32397 0Z" id="Rectangle" fill="#FFFFFF" stroke="none" />
        <path d="M1.22116 6.09976C1.89538 6.09976 2.44177 6.64616 2.44177 7.32037L2.44177 7.32037C2.44177 7.99459 1.89538 8.54098 1.22116 8.54098L1.2211 8.54098C0.546883 8.54098 0.000488281 7.99459 0.000488281 7.32037L0.000488281 7.32037C0.000488281 6.64616 0.546883 6.09976 1.2211 6.09976L1.22116 6.09976Z" id="Rectangle" fill="#FFFFFF" stroke="none" />
        <path d="M31.7391 6.09988C32.4133 6.09988 32.9597 6.64628 32.9597 7.32049L32.9597 7.32049C32.9597 7.99471 32.4133 8.54111 31.7391 8.54111L31.739 8.54111C31.0648 8.54111 30.5184 7.99471 30.5184 7.32049L30.5184 7.32049C30.5184 6.64628 31.0648 6.09988 31.739 6.09988L31.7391 6.09988Z" id="Rectangle" fill="#FFFFFF" stroke="none" />
        <path d="M37.8424 6.09982C38.5167 6.09982 39.063 6.64622 39.063 7.32043L39.063 7.32043C39.063 7.99465 38.5167 8.54104 37.8424 8.54104L37.8424 8.54104C37.1682 8.54104 36.6218 7.99465 36.6218 7.32043L36.6218 7.32043C36.6218 6.64622 37.1682 6.09982 37.8424 6.09982L37.8424 6.09982Z" id="Rectangle" fill="#FFFFFF" stroke="none" />
        <path d="M25.6328 6.09976C26.3071 6.09976 26.8535 6.64616 26.8535 7.32037L26.8535 7.32037C26.8535 7.99459 26.3071 8.54098 25.6328 8.54098L25.6327 8.54098C24.9585 8.54098 24.4121 7.99459 24.4121 7.32037L24.4121 7.32037C24.4121 6.64616 24.9585 6.09976 25.6327 6.09976L25.6328 6.09976Z" id="Rectangle" fill="#FFFFFF" stroke="none" />
        <path d="M19.5297 6.09982C20.2039 6.09982 20.7503 6.64622 20.7503 7.32043L20.7503 7.32043C20.7503 7.99465 20.2039 8.54104 19.5297 8.54104L19.5296 8.54104C18.8554 8.54104 18.309 7.99465 18.309 7.32043L18.309 7.32043C18.309 6.64622 18.8554 6.09982 19.5296 6.09982L19.5297 6.09982Z" id="Rectangle" fill="#FFFFFF" stroke="none" />
        <path d="M13.4259 6.09982C14.1001 6.09982 14.6465 6.64622 14.6465 7.32043L14.6465 7.32043C14.6465 7.99465 14.1001 8.54104 13.4259 8.54104L13.4257 8.54104C12.7515 8.54104 12.2051 7.99465 12.2051 7.32043L12.2051 7.32043C12.2051 6.64622 12.7515 6.09982 13.4257 6.09982L13.4259 6.09982Z" id="Rectangle" fill="#FFFFFF" stroke="none" />
        <path d="M7.32474 6.09982C7.99895 6.09982 8.54535 6.64622 8.54535 7.32043L8.54535 7.32043C8.54535 7.99465 7.99895 8.54104 7.32474 8.54104L7.32468 8.54104C6.65046 8.54104 6.10406 7.99465 6.10406 7.32043L6.10406 7.32043C6.10406 6.64622 6.65046 6.09982 7.32468 6.09982L7.32474 6.09982Z" id="Rectangle" fill="#FFFFFF" stroke="none" />
        <path d="M1.22122 12.203C1.89544 12.203 2.44183 12.7494 2.44183 13.4236L2.44183 13.4236C2.44183 14.0978 1.89544 14.6442 1.22122 14.6442L1.22116 14.6442C0.546944 14.6442 0.000549316 14.0978 0.000549316 13.4236L0.000549316 13.4236C0.000549316 12.7494 0.546944 12.203 1.22116 12.203L1.22122 12.203Z" id="Rectangle" fill="#FFFFFF" stroke="none" />
        <path d="M31.739 12.203C32.4133 12.203 32.9597 12.7494 32.9597 13.4236L32.9597 13.4236C32.9597 14.0978 32.4133 14.6442 31.739 14.6442L31.739 14.6442C31.0648 14.6442 30.5184 14.0978 30.5184 13.4236L30.5184 13.4236C30.5184 12.7494 31.0648 12.203 31.739 12.203L31.739 12.203Z" id="Rectangle" fill="#FFFFFF" stroke="none" />
        <path d="M37.8426 12.203C38.5168 12.203 39.0632 12.7494 39.0632 13.4236L39.0632 13.4236C39.0632 14.0978 38.5168 14.6442 37.8426 14.6442L37.8425 14.6442C37.1683 14.6442 36.6219 14.0978 36.6219 13.4236L36.6219 13.4236C36.6219 12.7494 37.1683 12.203 37.8425 12.203L37.8426 12.203Z" id="Rectangle" fill="#FFFFFF" stroke="none" />
        <path d="M25.6329 12.2031C26.3071 12.2031 26.8535 12.7495 26.8535 13.4237L26.8535 13.4237C26.8535 14.0979 26.3071 14.6443 25.6329 14.6443L25.6328 14.6443C24.9586 14.6443 24.4122 14.0979 24.4122 13.4237L24.4122 13.4237C24.4122 12.7495 24.9586 12.2031 25.6328 12.2031L25.6329 12.2031Z" id="Rectangle" fill="#FFFFFF" stroke="none" />
        <path d="M19.5296 12.2029C20.2038 12.2029 20.7502 12.7493 20.7502 13.4236L20.7502 13.4236C20.7502 14.0978 20.2038 14.6442 19.5296 14.6442L19.5294 14.6442C18.8552 14.6442 18.3088 14.0978 18.3088 13.4236L18.3088 13.4236C18.3088 12.7493 18.8552 12.2029 19.5294 12.2029L19.5296 12.2029Z" id="Rectangle" fill="#FFFFFF" stroke="none" />
        <path d="M13.4259 12.203C14.1001 12.203 14.6465 12.7494 14.6465 13.4236L14.6465 13.4236C14.6465 14.0978 14.1001 14.6442 13.4259 14.6442L13.4257 14.6442C12.7515 14.6442 12.2051 14.0978 12.2051 13.4236L12.2051 13.4236C12.2051 12.7494 12.7515 12.203 13.4257 12.203L13.4259 12.203Z" id="Rectangle" fill="#FFFFFF" stroke="none" />
        <path d="M7.32474 12.203C7.99895 12.203 8.54535 12.7494 8.54535 13.4236L8.54535 13.4236C8.54535 14.0978 7.99895 14.6442 7.32474 14.6442L7.32468 14.6442C6.65046 14.6442 6.10406 14.0978 6.10406 13.4236L6.10406 13.4236C6.10406 12.7494 6.65046 12.203 7.32468 12.203L7.32474 12.203Z" id="Rectangle" fill="#FFFFFF" stroke="none" />
        <path d="M1.22122 18.3065C1.89544 18.3065 2.44183 18.8529 2.44183 19.5271L2.44183 19.5271C2.44183 20.2013 1.89544 20.7477 1.22122 20.7477L1.22116 20.7477C0.546944 20.7477 0.000549316 20.2013 0.000549316 19.5271L0.000549316 19.5271C0.000549316 18.8529 0.546944 18.3065 1.22116 18.3065L1.22122 18.3065Z" id="Rectangle" fill="#FFFFFF" stroke="none" />
        <path d="M31.739 18.3065C32.4133 18.3065 32.9597 18.8529 32.9597 19.5271L32.9597 19.5271C32.9597 20.2013 32.4133 20.7477 31.739 20.7477L31.739 20.7477C31.0648 20.7477 30.5184 20.2013 30.5184 19.5271L30.5184 19.5271C30.5184 18.8529 31.0648 18.3065 31.739 18.3065L31.739 18.3065Z" id="Rectangle" fill="#FFFFFF" stroke="none" />
        <path d="M37.8426 18.3066C38.5168 18.3066 39.0632 18.853 39.0632 19.5272L39.0632 19.5272C39.0632 20.2014 38.5168 20.7478 37.8426 20.7478L37.8425 20.7478C37.1683 20.7478 36.6219 20.2014 36.6219 19.5272L36.6219 19.5272C36.6219 18.853 37.1683 18.3066 37.8425 18.3066L37.8426 18.3066Z" id="Rectangle" fill="#FFFFFF" stroke="none" />
        <path d="M25.6329 18.3065C26.3071 18.3065 26.8535 18.8529 26.8535 19.5271L26.8535 19.5271C26.8535 20.2013 26.3071 20.7477 25.6329 20.7477L25.6328 20.7477C24.9586 20.7477 24.4122 20.2013 24.4122 19.5271L24.4122 19.5271C24.4122 18.8529 24.9586 18.3065 25.6328 18.3065L25.6329 18.3065Z" id="Rectangle" fill="#FFFFFF" stroke="none" />
        <path d="M19.5297 18.3066C20.2039 18.3066 20.7503 18.853 20.7503 19.5272L20.7503 19.5272C20.7503 20.2014 20.2039 20.7478 19.5297 20.7478L19.5296 20.7478C18.8554 20.7478 18.309 20.2014 18.309 19.5272L18.309 19.5272C18.309 18.853 18.8554 18.3066 19.5296 18.3066L19.5297 18.3066Z" id="Rectangle" fill="#FFFFFF" stroke="none" />
        <path d="M13.4257 18.3065C14.1 18.3065 14.6464 18.8529 14.6464 19.5271L14.6464 19.5271C14.6464 20.2013 14.1 20.7477 13.4257 20.7477L13.4256 20.7477C12.7514 20.7477 12.205 20.2013 12.205 19.5271L12.205 19.5271C12.205 18.8529 12.7514 18.3065 13.4256 18.3065L13.4257 18.3065Z" id="Rectangle" fill="#FFFFFF" stroke="none" />
        <path d="M7.32474 18.3065C7.99895 18.3065 8.54535 18.8529 8.54535 19.5271L8.54535 19.5271C8.54535 20.2013 7.99895 20.7477 7.32474 20.7477L7.32468 20.7477C6.65046 20.7477 6.10406 20.2013 6.10406 19.5271L6.10406 19.5271C6.10406 18.8529 6.65046 18.3065 7.32468 18.3065L7.32474 18.3065Z" id="Rectangle" fill="#FFFFFF" stroke="none" />
        <path d="M1.22122 24.41C1.89544 24.41 2.44183 24.9564 2.44183 25.6306L2.44183 25.6306C2.44183 26.3049 1.89544 26.8513 1.22122 26.8513L1.22116 26.8513C0.546944 26.8513 0.000549316 26.3049 0.000549316 25.6306L0.000549316 25.6306C0.000549316 24.9564 0.546944 24.41 1.22116 24.41L1.22122 24.41Z" id="Rectangle" fill="#FFFFFF" stroke="none" />
        <path d="M31.7391 24.4101C32.4133 24.4101 32.9597 24.9565 32.9597 25.6307L32.9597 25.6307C32.9597 26.3049 32.4133 26.8513 31.7391 26.8513L31.739 26.8513C31.0648 26.8513 30.5184 26.3049 30.5184 25.6307L30.5184 25.6307C30.5184 24.9565 31.0648 24.4101 31.739 24.4101L31.7391 24.4101Z" id="Rectangle" fill="#FFFFFF" stroke="none" />
        <path d="M37.8424 24.4101C38.5167 24.4101 39.063 24.9565 39.063 25.6307L39.063 25.6307C39.063 26.3049 38.5167 26.8513 37.8424 26.8513L37.8424 26.8513C37.1682 26.8513 36.6218 26.3049 36.6218 25.6307L36.6218 25.6307C36.6218 24.9565 37.1682 24.4101 37.8424 24.4101L37.8424 24.4101Z" id="Rectangle" fill="#FFFFFF" stroke="none" />
        <path d="M25.6329 24.41C26.3071 24.41 26.8535 24.9564 26.8535 25.6306L26.8535 25.6306C26.8535 26.3049 26.3071 26.8513 25.6329 26.8513L25.6328 26.8513C24.9586 26.8513 24.4122 26.3049 24.4122 25.6306L24.4122 25.6306C24.4122 24.9564 24.9586 24.41 25.6328 24.41L25.6329 24.41Z" id="Rectangle" fill="#FFFFFF" stroke="none" />
        <path d="M19.5297 24.41C20.2039 24.41 20.7503 24.9564 20.7503 25.6306L20.7503 25.6306C20.7503 26.3049 20.2039 26.8513 19.5297 26.8513L19.5296 26.8513C18.8554 26.8513 18.309 26.3049 18.309 25.6306L18.309 25.6306C18.309 24.9564 18.8554 24.41 19.5296 24.41L19.5297 24.41Z" id="Rectangle" fill="#FFFFFF" stroke="none" />
        <path d="M13.4259 24.4101C14.1001 24.4101 14.6465 24.9565 14.6465 25.6307L14.6465 25.6307C14.6465 26.3049 14.1001 26.8513 13.4259 26.8513L13.4257 26.8513C12.7515 26.8513 12.2051 26.3049 12.2051 25.6307L12.2051 25.6307C12.2051 24.9565 12.7515 24.4101 13.4257 24.4101L13.4259 24.4101Z" id="Rectangle" fill="#FFFFFF" stroke="none" />
        <path d="M7.32468 24.4099C7.99889 24.4099 8.54529 24.9563 8.54529 25.6306L8.54529 25.6306C8.54529 26.3048 7.99889 26.8512 7.32468 26.8512L7.32461 26.8512C6.6504 26.8512 6.104 26.3048 6.104 25.6306L6.104 25.6306C6.104 24.9563 6.6504 24.4099 7.32461 24.4099L7.32468 24.4099Z" id="Rectangle" fill="#FFFFFF" stroke="none" />
        <path d="M1.22116 30.5133C1.89538 30.5133 2.44177 31.0597 2.44177 31.7339L2.44177 31.7339C2.44177 32.4081 1.89538 32.9545 1.22116 32.9545L1.2211 32.9545C0.546883 32.9545 0.000488281 32.4081 0.000488281 31.7339L0.000488281 31.7339C0.000488281 31.0597 0.546883 30.5133 1.2211 30.5133L1.22116 30.5133Z" id="Rectangle" fill="#FFFFFF" stroke="none" />
        <path d="M31.739 30.5134C32.4133 30.5134 32.9597 31.0598 32.9597 31.734L32.9597 31.734C32.9597 32.4083 32.4133 32.9547 31.739 32.9547L31.739 32.9547C31.0648 32.9547 30.5184 32.4083 30.5184 31.734L30.5184 31.734C30.5184 31.0598 31.0648 30.5134 31.739 30.5134L31.739 30.5134Z" id="Rectangle" fill="#FFFFFF" stroke="none" />
        <path d="M37.8424 30.5133C38.5167 30.5133 39.063 31.0597 39.063 31.7339L39.063 31.7339C39.063 32.4082 38.5167 32.9546 37.8424 32.9546L37.8424 32.9546C37.1682 32.9546 36.6218 32.4082 36.6218 31.7339L36.6218 31.7339C36.6218 31.0597 37.1682 30.5133 37.8424 30.5133L37.8424 30.5133Z" id="Rectangle" fill="#FFFFFF" stroke="none" />
        <path d="M25.633 30.5134C26.3072 30.5134 26.8536 31.0598 26.8536 31.734L26.8536 31.734C26.8536 32.4083 26.3072 32.9547 25.633 32.9547L25.6328 32.9547C24.9586 32.9547 24.4122 32.4083 24.4122 31.734L24.4122 31.734C24.4122 31.0598 24.9586 30.5134 25.6328 30.5134L25.633 30.5134Z" id="Rectangle" fill="#FFFFFF" stroke="none" />
        <path d="M19.5297 30.5133C20.2039 30.5133 20.7503 31.0597 20.7503 31.7339L20.7503 31.7339C20.7503 32.4082 20.2039 32.9546 19.5297 32.9546L19.5296 32.9546C18.8554 32.9546 18.309 32.4082 18.309 31.7339L18.309 31.7339C18.309 31.0597 18.8554 30.5133 19.5296 30.5133L19.5297 30.5133Z" id="Rectangle" fill="#FFFFFF" stroke="none" />
        <path d="M13.4259 30.5133C14.1001 30.5133 14.6465 31.0597 14.6465 31.7339L14.6465 31.7339C14.6465 32.4082 14.1001 32.9546 13.4259 32.9546L13.4257 32.9546C12.7515 32.9546 12.2051 32.4082 12.2051 31.7339L12.2051 31.7339C12.2051 31.0597 12.7515 30.5133 13.4257 30.5133L13.4259 30.5133Z" id="Rectangle" fill="#FFFFFF" stroke="none" />
        <path d="M7.32474 30.5134C7.99895 30.5134 8.54535 31.0598 8.54535 31.734L8.54535 31.734C8.54535 32.4083 7.99895 32.9547 7.32474 32.9547L7.32468 32.9547C6.65046 32.9547 6.10406 32.4083 6.10406 31.734L6.10406 31.734C6.10406 31.0598 6.65046 30.5134 7.32468 30.5134L7.32474 30.5134Z" id="Rectangle" fill="#FFFFFF" stroke="none" />
        <path d="M1.22122 36.6168C1.89544 36.6168 2.44183 37.1632 2.44183 37.8374L2.44183 37.8374C2.44183 38.5117 1.89544 39.058 1.22122 39.058L1.22116 39.058C0.546944 39.058 0.000549316 38.5117 0.000549316 37.8374L0.000549316 37.8374C0.000549316 37.1632 0.546944 36.6168 1.22116 36.6168L1.22122 36.6168Z" id="Rectangle" fill="#FFFFFF" stroke="none" />
        <path d="M31.739 36.6167C32.4133 36.6167 32.9597 37.1631 32.9597 37.8373L32.9597 37.8373C32.9597 38.5116 32.4133 39.058 31.739 39.058L31.739 39.058C31.0648 39.058 30.5184 38.5116 30.5184 37.8373L30.5184 37.8373C30.5184 37.1631 31.0648 36.6167 31.739 36.6167L31.739 36.6167Z" id="Rectangle" fill="#FFFFFF" stroke="none" />
        <path d="M37.8424 36.6167C38.5167 36.6167 39.063 37.1631 39.063 37.8373L39.063 37.8373C39.063 38.5116 38.5167 39.058 37.8424 39.058L37.8424 39.058C37.1682 39.058 36.6218 38.5116 36.6218 37.8373L36.6218 37.8373C36.6218 37.1631 37.1682 36.6167 37.8424 36.6167L37.8424 36.6167Z" id="Rectangle" fill="#FFFFFF" stroke="none" />
        <path d="M25.6329 36.6168C26.3071 36.6168 26.8535 37.1632 26.8535 37.8374L26.8535 37.8374C26.8535 38.5117 26.3071 39.058 25.6329 39.058L25.6328 39.058C24.9586 39.058 24.4122 38.5117 24.4122 37.8374L24.4122 37.8374C24.4122 37.1632 24.9586 36.6168 25.6328 36.6168L25.6329 36.6168Z" id="Rectangle" fill="#FFFFFF" stroke="none" />
        <path d="M19.5298 36.6168C20.204 36.6168 20.7504 37.1632 20.7504 37.8374L20.7504 37.8374C20.7504 38.5117 20.204 39.058 19.5298 39.058L19.5296 39.058C18.8554 39.058 18.309 38.5117 18.309 37.8374L18.309 37.8374C18.309 37.1632 18.8554 36.6168 19.5296 36.6168L19.5298 36.6168Z" id="Rectangle" fill="#FFFFFF" stroke="none" />
        <path d="M13.4259 36.6167C14.1001 36.6167 14.6465 37.1631 14.6465 37.8373L14.6465 37.8373C14.6465 38.5116 14.1001 39.058 13.4259 39.058L13.4257 39.058C12.7515 39.058 12.2051 38.5116 12.2051 37.8373L12.2051 37.8373C12.2051 37.1631 12.7515 36.6167 13.4257 36.6167L13.4259 36.6167Z" id="Rectangle" fill="#FFFFFF" stroke="none" />
        <path d="M7.32474 36.6167C7.99895 36.6167 8.54535 37.1631 8.54535 37.8373L8.54535 37.8373C8.54535 38.5116 7.99895 39.058 7.32474 39.058L7.32468 39.058C6.65046 39.058 6.10406 38.5116 6.10406 37.8373L6.10406 37.8373C6.10406 37.1631 6.65046 36.6167 7.32468 36.6167L7.32474 36.6167Z" id="Rectangle" fill="#FFFFFF" stroke="none" />
      </g>
    </g>
    <g id="Group" transform="matrix(1.0000006 0 0 1.0000006 226.28577 91.428085)">
      <path d="M0 0L57.1433 0L57.1433 57.1395L0 57.1395L0 0Z" id="Rectangle" fill="#3E7AB5" fill-rule="evenodd" stroke="none" />
      <path d="M43.0067 35.484C43.0854 38.3234 41.5122 40.514 38.2872 42.0556C35.8331 43.2433 32.6003 43.845 28.5887 43.8608L28.5533 43.8608C24.5417 43.845 21.3089 43.2433 18.8547 42.0556C15.614 40.514 14.033 38.3234 14.1116 35.484L14.1116 26.4583L12.6604 24.311C12.4716 24.0279 12.3733 23.7172 12.3654 23.379C12.3654 23.0329 12.448 22.7143 12.6132 22.4233C13.3211 21.2278 14.2611 20.0047 15.4331 18.7541C15.7084 18.4552 16.0427 18.2703 16.436 18.1995C16.8293 18.1288 17.2068 18.1838 17.5687 18.3647C18.0957 18.6321 18.6266 18.9232 19.1615 19.2378L19.4565 18.99L19.5272 18.9546L20.1172 18.5181C20.0621 17.8259 20.0267 17.1102 20.011 16.3708C20.0031 16.0169 20.0897 15.6904 20.2706 15.3916C20.4515 15.0927 20.6953 14.8646 21.0021 14.7073C22.2134 14.1016 23.6332 13.6179 25.2614 13.2561C25.6311 13.1695 25.9969 13.2049 26.3587 13.3623C26.7205 13.5117 26.9998 13.7555 27.1964 14.0937C27.5268 14.6443 27.8454 15.2342 28.1521 15.8635L28.5415 15.8517L28.5887 15.8517L28.9898 15.8635C29.2887 15.25 29.6034 14.6601 29.9337 14.0937C30.1304 13.7634 30.4096 13.5196 30.7714 13.3623C31.1254 13.2049 31.499 13.1695 31.8923 13.2561C33.5048 13.6179 34.9207 14.1016 36.1399 14.7073C36.4466 14.8646 36.6944 15.0927 36.8832 15.3916C37.0562 15.6904 37.1428 16.0208 37.1428 16.3826L37.0248 18.5299L37.5911 18.931L37.6501 18.9664L37.9805 19.2378C38.5075 18.9232 39.0384 18.6321 39.5733 18.3647C39.9273 18.1838 40.3009 18.1288 40.6942 18.1995C41.0875 18.2703 41.4218 18.4552 41.6971 18.7541C42.8612 19.9968 43.8012 21.2238 44.517 22.4351C44.69 22.7183 44.7726 23.0329 44.7648 23.379C44.7648 23.7015 44.6743 24.0082 44.4934 24.2992C44.0057 25.0858 43.5141 25.8094 43.0185 26.4701L43.0185 32.8294L43.0067 33.03L43.0067 35.484M41.1899 33.4665L41.1899 25.8802C41.7798 25.1408 42.3698 24.3071 42.9597 23.379C42.3068 22.2778 41.4455 21.1491 40.3758 19.9928C39.5105 20.4254 38.6531 20.9249 37.8036 21.4912C37.6384 21.3025 37.4261 21.1097 37.1665 20.9131L36.4939 20.4058L35.7978 19.9339L35.0899 19.4855C35.2157 18.5338 35.2944 17.4877 35.3259 16.3472C34.2246 15.8044 32.9425 15.3679 31.4794 15.0376C30.976 15.8949 30.508 16.8152 30.0754 17.7984L28.5651 17.6804L28.5415 17.6804L27.0549 17.7984C26.5987 16.7837 26.1267 15.8634 25.639 15.0376C24.176 15.3679 22.8938 15.8044 21.7926 16.3472C21.8241 17.4641 21.9067 18.5102 22.0404 19.4855L21.3089 19.9339L20.6245 20.4058L19.952 20.9131C19.6924 21.1097 19.4761 21.3025 19.3031 21.4912C18.4614 20.9249 17.608 20.4254 16.7427 19.9928C15.673 21.1491 14.8117 22.2778 14.1588 23.379C14.8195 24.4015 15.4055 25.2352 15.9168 25.8802L15.9168 33.4665L15.964 33.4665L20.6481 33.9031C20.7661 33.9188 20.8684 33.9699 20.9549 34.0564C21.0336 34.143 21.0808 34.2491 21.0965 34.375L21.2381 36.4279L25.3205 36.711L25.5918 34.8115C25.6154 34.6935 25.6744 34.5952 25.7688 34.5166C25.8632 34.4379 25.9694 34.3986 26.0874 34.3986L31.0311 34.3986C31.1491 34.3986 31.2553 34.4379 31.3497 34.5166C31.4441 34.5952 31.503 34.6935 31.5266 34.8115L31.8098 36.711L35.8804 36.4279L36.0338 34.375C36.0338 34.2491 36.0771 34.143 36.1636 34.0564C36.2501 33.9699 36.3524 33.9188 36.4703 33.9031L41.1545 33.4665L41.1899 33.4665M24.7543 28.9481C24.7543 29.7189 24.479 30.3836 23.9284 30.9421C23.3778 31.4849 22.7131 31.7562 21.9344 31.7562C21.1556 31.7562 20.4909 31.4849 19.9403 30.9421C19.3976 30.3836 19.1262 29.7189 19.1262 28.9481C19.1262 28.1772 19.3976 27.5164 19.9403 26.9658C20.4909 26.423 21.1556 26.1517 21.9344 26.1517C22.7131 26.1517 23.3778 26.423 23.9284 26.9658C24.479 27.5164 24.7543 28.1772 24.7543 28.9481M28.5536 32.0033C28.3097 32.0033 28.0973 31.9246 27.9164 31.7673C27.7433 31.61 27.6568 31.4173 27.6568 31.1892L27.6568 28.6055C27.6568 28.3774 27.7433 28.1847 27.9164 28.0273C28.0973 27.8622 28.3097 27.7796 28.5536 27.7796C28.8053 27.7796 29.0177 27.8622 29.1907 28.0273C29.3716 28.1847 29.4621 28.3774 29.4621 28.6055L29.4621 31.1892C29.4621 31.4173 29.3716 31.61 29.1907 31.7673C29.0177 31.9246 28.8053 32.0033 28.5536 32.0033M32.3643 28.9481C32.3643 28.1772 32.6396 27.5164 33.1902 26.9658C33.7408 26.423 34.4055 26.1517 35.1842 26.1517C35.9629 26.1517 36.6276 26.423 37.1782 26.9658C37.7209 27.5164 37.9923 28.1772 37.9923 28.9481C37.9923 29.7189 37.7209 30.3836 37.1782 30.9421C36.6276 31.4849 35.9629 31.7562 35.1842 31.7562C34.4055 31.7562 33.7408 31.4849 33.1902 30.9421C32.6396 30.3836 32.3643 29.7189 32.3643 28.9481M41.1899 34.4576L37.0014 34.8587L36.848 36.9353C36.848 37.0533 36.8047 37.1556 36.7182 37.2421C36.616 37.3365 36.5058 37.3876 36.3878 37.3955L31.4088 37.7494L31.3734 37.7494C31.2397 37.7494 31.1295 37.7101 31.043 37.6315C30.9486 37.5528 30.8936 37.4466 30.8778 37.3129L30.5947 35.3897L26.5359 35.3897L26.2409 37.3129C26.2252 37.4466 26.1623 37.5528 26.0521 37.6315C25.9578 37.718 25.8437 37.7573 25.71 37.7494L20.7309 37.3955C20.605 37.3876 20.4989 37.3365 20.4123 37.2421C20.3179 37.1556 20.2708 37.0533 20.2708 36.9353L20.1056 34.8587L15.917 34.4576L15.917 35.5077C15.917 37.6236 17.1519 39.2676 19.6218 40.4396C21.8793 41.5172 24.8526 42.0599 28.5417 42.0678L28.5653 42.0678C32.2622 42.0599 35.2394 41.5172 37.4969 40.4396C39.9589 39.2676 41.1899 37.6236 41.1899 35.5077L41.1899 34.4576" id="Outline" fill="#FFFFFF" fill-rule="evenodd" stroke="none" />
    </g>
    <g id="naiive_trans_dark" transform="matrix(1.0000006 0 0 1.0000006 740.5715 262.85715)">
      <path d="M0 0L57.1432 0L57.1432 57.1429L0 57.1429L0 0L0 0Z" id="Rectangle" fill="#000000" fill-rule="evenodd" stroke="none" />
      <path d="M14.2191 13.9785L28.6388 26.4868L43.0585 13.9969L45.6032 16.4802L45.6032 40.6732L43.0585 43.1645L28.6388 30.6562L14.232 43.1645L11.6744 41.4967L11.6744 16.4802L14.2191 13.9785L14.2191 13.9785ZM15.0673 38.5115L26.0197 29.0484L15.0673 19.5853L15.0673 38.5115L15.0673 38.5115L15.0673 38.5115ZM31.298 29.0484L42.2103 19.62L42.2103 38.4768L31.298 29.0484L31.298 29.0484L31.298 29.0484Z" id="Vector" fill="#FFFFFF" fill-rule="evenodd" stroke="none" />
    </g>
  </g>
</svg>