<?xml version="1.0" encoding="utf-8"?>
<svg width="1024px" height="414px" viewBox="0 0 1024 414" version="1.1" xmlns:xlink="http://www.w3.org/1999/xlink" xmlns="http://www.w3.org/2000/svg">
  <g id="logo_outlined">
    <path d="M0 0L1024 0L1024 414L0 414L0 0Z" id="Rectangle" fill="#448AFF" fill-opacity="0" fill-rule="evenodd" stroke="none" />
    <g id="Group" transform="translate(283.4287 91.42808)">
      <g id="Group" transform="scale(1.0000006 1.0000006)">
        <path d="M0 0L228.61 0L228.61 228.601L0 228.601L0 0Z" id="Rectangle" fill="#000000" fill-rule="evenodd" stroke="none" />
        <path d="M89.4968 59.8385C89.4968 58.353 88.2922 57.1494 86.8067 57.1494L63.9442 57.1494C62.4584 57.1494 61.2546 58.353 61.2546 59.8385L61.2546 67.9067C61.2546 69.3926 62.4584 70.5965 63.9442 70.5965L65.2896 70.5965L65.2896 77.3204L46.4619 77.3204C43.4901 77.3204 41.0828 79.7279 41.0828 82.6991L41.0828 152.623C41.0828 155.594 43.4901 158.002 46.4619 158.002L57.2207 158.002L57.2207 168.76C57.2207 170.246 58.4244 171.449 59.9099 171.449L89.4968 171.449C90.9821 171.449 92.1859 170.246 92.1859 168.76L92.1859 158.002L137.909 158.002L137.909 168.76C137.909 170.246 139.113 171.449 140.598 171.449L170.184 171.449C171.669 171.449 172.874 170.246 172.874 168.76L172.874 158.002L183.631 158.002C186.602 158.002 189.01 155.594 189.01 152.623L189.01 82.6991C189.01 79.7279 186.602 77.3204 183.631 77.3204L166.149 77.3204L166.149 70.5965L167.494 70.5965C168.98 70.5965 170.184 69.3926 170.184 67.9067L170.184 59.8385C170.184 58.353 168.98 57.1494 167.494 57.1494L144.632 57.1494C143.147 57.1494 141.943 58.353 141.943 59.8385L141.943 67.9067C141.943 69.3926 143.147 70.5965 144.632 70.5965L145.977 70.5965L145.977 77.3204L85.4618 77.3204L85.4618 70.5965L86.8067 70.5965C88.2922 70.5965 89.4968 69.3926 89.4968 67.9067L89.4968 59.8385L89.4968 59.8385ZM82.7712 97.492C71.6307 97.492 62.5992 106.523 62.5992 117.663C62.5992 128.805 71.6307 137.835 82.7712 137.835C93.912 137.835 102.942 128.805 102.942 117.663C102.942 106.523 93.912 97.492 82.7712 97.492L82.7712 97.492ZM147.315 97.4951C136.173 97.4951 127.143 106.527 127.143 117.667C127.143 128.808 136.173 137.839 147.315 137.839C158.454 137.839 167.485 128.808 167.485 117.667C167.485 106.527 158.454 97.4951 147.315 97.4951L147.315 97.4951Z" id="Vector" fill="#FFFFFF" fill-rule="evenodd" stroke="none" />
      </g>
      <g id="Group" transform="matrix(1.0000006 0 0 1.0000006 228.56842 0.000494112)">
        <path d="M0 0L228.606 0L228.606 228.606L0 228.606L0 0Z" id="Rectangle" fill="#000000" fill-rule="evenodd" stroke="none" />
        <path d="M70.091 36.0156L114.252 80.1554L158.201 36.2274L192.142 70.1531L148.195 114.081L192.281 158.146L158.34 192.072L114.252 148.005L69.9522 192.284L36.0115 158.358L80.3097 114.081L36.1503 69.9413L70.091 36.0156L70.091 36.0156Z" id="Vector" fill="#FFFFFF" fill-rule="evenodd" stroke="none" />
      </g>
    </g>
    <g id="Group" transform="matrix(1.0000006 0 0 1.0000006 683.4284 319.99994)">
      <path d="M0 0L57.1437 0L57.1437 57.1428L0 57.1428L0 0Z" id="Rectangle" fill="#000000" fill-rule="evenodd" stroke="none" />
      <g id="Group" transform="matrix(1.0000001 0 0 1.0000001 9.007782 9.005325)">
        <path d="M1.22064 9.15527e-05C1.89487 9.15527e-05 2.44128 0.546499 2.44128 1.22073L2.44128 1.22076C2.44128 1.895 1.89487 2.4414 1.22064 2.4414L1.22064 2.4414C0.546408 2.4414 0 1.895 0 1.22076L0 1.22073C0 0.546499 0.546408 9.15527e-05 1.22064 9.15527e-05Z" id="Rectangle" fill="#FFFFFF" stroke="none" />
        <path d="M31.7381 0C32.4123 0 32.9587 0.546408 32.9587 1.22064L32.9587 1.22067C32.9587 1.8949 32.4123 2.44131 31.7381 2.44131L31.7381 2.44131C31.0639 2.44131 30.5175 1.8949 30.5175 1.22067L30.5175 1.22064C30.5175 0.546408 31.0639 0 31.7381 0Z" id="Rectangle" fill="#FFFFFF" stroke="none" />
        <path d="M37.8417 9.15527e-05C38.5159 9.15527e-05 39.0623 0.546499 39.0623 1.22073L39.0623 1.22076C39.0623 1.895 38.5159 2.4414 37.8417 2.4414L37.8417 2.4414C37.1674 2.4414 36.621 1.895 36.621 1.22076L36.621 1.22073C36.621 0.546499 37.1674 9.15527e-05 37.8417 9.15527e-05Z" id="Rectangle" fill="#FFFFFF" stroke="none" />
        <path d="M25.6322 9.15527e-05C26.3065 9.15527e-05 26.8529 0.546506 26.8529 1.22075L26.8529 1.22075C26.8529 1.89499 26.3065 2.4414 25.6322 2.4414L25.6322 2.4414C24.958 2.4414 24.4116 1.89499 24.4116 1.22075L24.4116 1.22075C24.4116 0.546506 24.958 9.15527e-05 25.6322 9.15527e-05L25.6322 9.15527e-05Z" id="Rectangle" fill="#FFFFFF" stroke="none" />
        <path d="M19.5289 9.15527e-05C20.2032 9.15527e-05 20.7496 0.546506 20.7496 1.22075L20.7496 1.22075C20.7496 1.89499 20.2032 2.4414 19.5289 2.4414L19.5289 2.4414C18.8546 2.4414 18.3082 1.89499 18.3082 1.22075L18.3082 1.22075C18.3082 0.546506 18.8546 9.15527e-05 19.5289 9.15527e-05L19.5289 9.15527e-05Z" id="Rectangle" fill="#FFFFFF" stroke="none" />
        <path d="M13.4252 9.15527e-05C14.0994 9.15527e-05 14.6458 0.546506 14.6458 1.22075L14.6458 1.22075C14.6458 1.89499 14.0994 2.4414 13.4252 2.4414L13.4251 2.4414C12.7509 2.4414 12.2045 1.89499 12.2045 1.22075L12.2045 1.22075C12.2045 0.546506 12.7509 9.15527e-05 13.4251 9.15527e-05L13.4252 9.15527e-05Z" id="Rectangle" fill="#FFFFFF" stroke="none" />
        <path d="M7.32397 0C7.99821 0 8.54461 0.546408 8.54461 1.22064L8.54461 1.22067C8.54461 1.8949 7.99821 2.44131 7.32397 2.44131L7.32397 2.44131C6.64974 2.44131 6.10333 1.8949 6.10333 1.22067L6.10333 1.22064C6.10333 0.546408 6.64974 0 7.32397 0Z" id="Rectangle" fill="#FFFFFF" stroke="none" />
        <path d="M1.22116 6.09976C1.89538 6.09976 2.44177 6.64616 2.44177 7.32037L2.44177 7.32037C2.44177 7.99459 1.89538 8.54098 1.22116 8.54098L1.2211 8.54098C0.546883 8.54098 0.000488281 7.99459 0.000488281 7.32037L0.000488281 7.32037C0.000488281 6.64616 0.546883 6.09976 1.2211 6.09976L1.22116 6.09976Z" id="Rectangle" fill="#FFFFFF" stroke="none" />
        <path d="M31.7391 6.09988C32.4133 6.09988 32.9597 6.64628 32.9597 7.32049L32.9597 7.32049C32.9597 7.99471 32.4133 8.54111 31.7391 8.54111L31.739 8.54111C31.0648 8.54111 30.5184 7.99471 30.5184 7.32049L30.5184 7.32049C30.5184 6.64628 31.0648 6.09988 31.739 6.09988L31.7391 6.09988Z" id="Rectangle" fill="#FFFFFF" stroke="none" />
        <path d="M37.8424 6.09982C38.5167 6.09982 39.063 6.64622 39.063 7.32043L39.063 7.32043C39.063 7.99465 38.5167 8.54104 37.8424 8.54104L37.8424 8.54104C37.1682 8.54104 36.6218 7.99465 36.6218 7.32043L36.6218 7.32043C36.6218 6.64622 37.1682 6.09982 37.8424 6.09982L37.8424 6.09982Z" id="Rectangle" fill="#FFFFFF" stroke="none" />
        <path d="M25.6328 6.09976C26.3071 6.09976 26.8535 6.64616 26.8535 7.32037L26.8535 7.32037C26.8535 7.99459 26.3071 8.54098 25.6328 8.54098L25.6327 8.54098C24.9585 8.54098 24.4121 7.99459 24.4121 7.32037L24.4121 7.32037C24.4121 6.64616 24.9585 6.09976 25.6327 6.09976L25.6328 6.09976Z" id="Rectangle" fill="#FFFFFF" stroke="none" />
        <path d="M19.5297 6.09982C20.2039 6.09982 20.7503 6.64622 20.7503 7.32043L20.7503 7.32043C20.7503 7.99465 20.2039 8.54104 19.5297 8.54104L19.5296 8.54104C18.8554 8.54104 18.309 7.99465 18.309 7.32043L18.309 7.32043C18.309 6.64622 18.8554 6.09982 19.5296 6.09982L19.5297 6.09982Z" id="Rectangle" fill="#FFFFFF" stroke="none" />
        <path d="M13.4259 6.09982C14.1001 6.09982 14.6465 6.64622 14.6465 7.32043L14.6465 7.32043C14.6465 7.99465 14.1001 8.54104 13.4259 8.54104L13.4257 8.54104C12.7515 8.54104 12.2051 7.99465 12.2051 7.32043L12.2051 7.32043C12.2051 6.64622 12.7515 6.09982 13.4257 6.09982L13.4259 6.09982Z" id="Rectangle" fill="#FFFFFF" stroke="none" />
        <path d="M7.32474 6.09982C7.99895 6.09982 8.54535 6.64622 8.54535 7.32043L8.54535 7.32043C8.54535 7.99465 7.99895 8.54104 7.32474 8.54104L7.32468 8.54104C6.65046 8.54104 6.10406 7.99465 6.10406 7.32043L6.10406 7.32043C6.10406 6.64622 6.65046 6.09982 7.32468 6.09982L7.32474 6.09982Z" id="Rectangle" fill="#FFFFFF" stroke="none" />
        <path d="M1.22122 12.203C1.89544 12.203 2.44183 12.7494 2.44183 13.4236L2.44183 13.4236C2.44183 14.0978 1.89544 14.6442 1.22122 14.6442L1.22116 14.6442C0.546944 14.6442 0.000549316 14.0978 0.000549316 13.4236L0.000549316 13.4236C0.000549316 12.7494 0.546944 12.203 1.22116 12.203L1.22122 12.203Z" id="Rectangle" fill="#FFFFFF" stroke="none" />
        <path d="M31.739 12.203C32.4133 12.203 32.9597 12.7494 32.9597 13.4236L32.9597 13.4236C32.9597 14.0978 32.4133 14.6442 31.739 14.6442L31.739 14.6442C31.0648 14.6442 30.5184 14.0978 30.5184 13.4236L30.5184 13.4236C30.5184 12.7494 31.0648 12.203 31.739 12.203L31.739 12.203Z" id="Rectangle" fill="#FFFFFF" stroke="none" />
        <path d="M37.8426 12.203C38.5168 12.203 39.0632 12.7494 39.0632 13.4236L39.0632 13.4236C39.0632 14.0978 38.5168 14.6442 37.8426 14.6442L37.8425 14.6442C37.1683 14.6442 36.6219 14.0978 36.6219 13.4236L36.6219 13.4236C36.6219 12.7494 37.1683 12.203 37.8425 12.203L37.8426 12.203Z" id="Rectangle" fill="#FFFFFF" stroke="none" />
        <path d="M25.6329 12.2031C26.3071 12.2031 26.8535 12.7495 26.8535 13.4237L26.8535 13.4237C26.8535 14.0979 26.3071 14.6443 25.6329 14.6443L25.6328 14.6443C24.9586 14.6443 24.4122 14.0979 24.4122 13.4237L24.4122 13.4237C24.4122 12.7495 24.9586 12.2031 25.6328 12.2031L25.6329 12.2031Z" id="Rectangle" fill="#FFFFFF" stroke="none" />
        <path d="M19.5296 12.2029C20.2038 12.2029 20.7502 12.7493 20.7502 13.4236L20.7502 13.4236C20.7502 14.0978 20.2038 14.6442 19.5296 14.6442L19.5294 14.6442C18.8552 14.6442 18.3088 14.0978 18.3088 13.4236L18.3088 13.4236C18.3088 12.7493 18.8552 12.2029 19.5294 12.2029L19.5296 12.2029Z" id="Rectangle" fill="#FFFFFF" stroke="none" />
        <path d="M13.4259 12.203C14.1001 12.203 14.6465 12.7494 14.6465 13.4236L14.6465 13.4236C14.6465 14.0978 14.1001 14.6442 13.4259 14.6442L13.4257 14.6442C12.7515 14.6442 12.2051 14.0978 12.2051 13.4236L12.2051 13.4236C12.2051 12.7494 12.7515 12.203 13.4257 12.203L13.4259 12.203Z" id="Rectangle" fill="#FFFFFF" stroke="none" />
        <path d="M7.32474 12.203C7.99895 12.203 8.54535 12.7494 8.54535 13.4236L8.54535 13.4236C8.54535 14.0978 7.99895 14.6442 7.32474 14.6442L7.32468 14.6442C6.65046 14.6442 6.10406 14.0978 6.10406 13.4236L6.10406 13.4236C6.10406 12.7494 6.65046 12.203 7.32468 12.203L7.32474 12.203Z" id="Rectangle" fill="#FFFFFF" stroke="none" />
        <path d="M1.22122 18.3065C1.89544 18.3065 2.44183 18.8529 2.44183 19.5271L2.44183 19.5271C2.44183 20.2013 1.89544 20.7477 1.22122 20.7477L1.22116 20.7477C0.546944 20.7477 0.000549316 20.2013 0.000549316 19.5271L0.000549316 19.5271C0.000549316 18.8529 0.546944 18.3065 1.22116 18.3065L1.22122 18.3065Z" id="Rectangle" fill="#FFFFFF" stroke="none" />
        <path d="M31.739 18.3065C32.4133 18.3065 32.9597 18.8529 32.9597 19.5271L32.9597 19.5271C32.9597 20.2013 32.4133 20.7477 31.739 20.7477L31.739 20.7477C31.0648 20.7477 30.5184 20.2013 30.5184 19.5271L30.5184 19.5271C30.5184 18.8529 31.0648 18.3065 31.739 18.3065L31.739 18.3065Z" id="Rectangle" fill="#FFFFFF" stroke="none" />
        <path d="M37.8426 18.3066C38.5168 18.3066 39.0632 18.853 39.0632 19.5272L39.0632 19.5272C39.0632 20.2014 38.5168 20.7478 37.8426 20.7478L37.8425 20.7478C37.1683 20.7478 36.6219 20.2014 36.6219 19.5272L36.6219 19.5272C36.6219 18.853 37.1683 18.3066 37.8425 18.3066L37.8426 18.3066Z" id="Rectangle" fill="#FFFFFF" stroke="none" />
        <path d="M25.6329 18.3065C26.3071 18.3065 26.8535 18.8529 26.8535 19.5271L26.8535 19.5271C26.8535 20.2013 26.3071 20.7477 25.6329 20.7477L25.6328 20.7477C24.9586 20.7477 24.4122 20.2013 24.4122 19.5271L24.4122 19.5271C24.4122 18.8529 24.9586 18.3065 25.6328 18.3065L25.6329 18.3065Z" id="Rectangle" fill="#FFFFFF" stroke="none" />
        <path d="M19.5297 18.3066C20.2039 18.3066 20.7503 18.853 20.7503 19.5272L20.7503 19.5272C20.7503 20.2014 20.2039 20.7478 19.5297 20.7478L19.5296 20.7478C18.8554 20.7478 18.309 20.2014 18.309 19.5272L18.309 19.5272C18.309 18.853 18.8554 18.3066 19.5296 18.3066L19.5297 18.3066Z" id="Rectangle" fill="#FFFFFF" stroke="none" />
        <path d="M13.4257 18.3065C14.1 18.3065 14.6464 18.8529 14.6464 19.5271L14.6464 19.5271C14.6464 20.2013 14.1 20.7477 13.4257 20.7477L13.4256 20.7477C12.7514 20.7477 12.205 20.2013 12.205 19.5271L12.205 19.5271C12.205 18.8529 12.7514 18.3065 13.4256 18.3065L13.4257 18.3065Z" id="Rectangle" fill="#FFFFFF" stroke="none" />
        <path d="M7.32474 18.3065C7.99895 18.3065 8.54535 18.8529 8.54535 19.5271L8.54535 19.5271C8.54535 20.2013 7.99895 20.7477 7.32474 20.7477L7.32468 20.7477C6.65046 20.7477 6.10406 20.2013 6.10406 19.5271L6.10406 19.5271C6.10406 18.8529 6.65046 18.3065 7.32468 18.3065L7.32474 18.3065Z" id="Rectangle" fill="#FFFFFF" stroke="none" />
        <path d="M1.22122 24.41C1.89544 24.41 2.44183 24.9564 2.44183 25.6306L2.44183 25.6306C2.44183 26.3049 1.89544 26.8513 1.22122 26.8513L1.22116 26.8513C0.546944 26.8513 0.000549316 26.3049 0.000549316 25.6306L0.000549316 25.6306C0.000549316 24.9564 0.546944 24.41 1.22116 24.41L1.22122 24.41Z" id="Rectangle" fill="#FFFFFF" stroke="none" />
        <path d="M31.7391 24.4101C32.4133 24.4101 32.9597 24.9565 32.9597 25.6307L32.9597 25.6307C32.9597 26.3049 32.4133 26.8513 31.7391 26.8513L31.739 26.8513C31.0648 26.8513 30.5184 26.3049 30.5184 25.6307L30.5184 25.6307C30.5184 24.9565 31.0648 24.4101 31.739 24.4101L31.7391 24.4101Z" id="Rectangle" fill="#FFFFFF" stroke="none" />
        <path d="M37.8424 24.4101C38.5167 24.4101 39.063 24.9565 39.063 25.6307L39.063 25.6307C39.063 26.3049 38.5167 26.8513 37.8424 26.8513L37.8424 26.8513C37.1682 26.8513 36.6218 26.3049 36.6218 25.6307L36.6218 25.6307C36.6218 24.9565 37.1682 24.4101 37.8424 24.4101L37.8424 24.4101Z" id="Rectangle" fill="#FFFFFF" stroke="none" />
        <path d="M25.6329 24.41C26.3071 24.41 26.8535 24.9564 26.8535 25.6306L26.8535 25.6306C26.8535 26.3049 26.3071 26.8513 25.6329 26.8513L25.6328 26.8513C24.9586 26.8513 24.4122 26.3049 24.4122 25.6306L24.4122 25.6306C24.4122 24.9564 24.9586 24.41 25.6328 24.41L25.6329 24.41Z" id="Rectangle" fill="#FFFFFF" stroke="none" />
        <path d="M19.5297 24.41C20.2039 24.41 20.7503 24.9564 20.7503 25.6306L20.7503 25.6306C20.7503 26.3049 20.2039 26.8513 19.5297 26.8513L19.5296 26.8513C18.8554 26.8513 18.309 26.3049 18.309 25.6306L18.309 25.6306C18.309 24.9564 18.8554 24.41 19.5296 24.41L19.5297 24.41Z" id="Rectangle" fill="#FFFFFF" stroke="none" />
        <path d="M13.4259 24.4101C14.1001 24.4101 14.6465 24.9565 14.6465 25.6307L14.6465 25.6307C14.6465 26.3049 14.1001 26.8513 13.4259 26.8513L13.4257 26.8513C12.7515 26.8513 12.2051 26.3049 12.2051 25.6307L12.2051 25.6307C12.2051 24.9565 12.7515 24.4101 13.4257 24.4101L13.4259 24.4101Z" id="Rectangle" fill="#FFFFFF" stroke="none" />
        <path d="M7.32468 24.4099C7.99889 24.4099 8.54529 24.9563 8.54529 25.6306L8.54529 25.6306C8.54529 26.3048 7.99889 26.8512 7.32468 26.8512L7.32461 26.8512C6.6504 26.8512 6.104 26.3048 6.104 25.6306L6.104 25.6306C6.104 24.9563 6.6504 24.4099 7.32461 24.4099L7.32468 24.4099Z" id="Rectangle" fill="#FFFFFF" stroke="none" />
        <path d="M1.22116 30.5133C1.89538 30.5133 2.44177 31.0597 2.44177 31.7339L2.44177 31.7339C2.44177 32.4081 1.89538 32.9545 1.22116 32.9545L1.2211 32.9545C0.546883 32.9545 0.000488281 32.4081 0.000488281 31.7339L0.000488281 31.7339C0.000488281 31.0597 0.546883 30.5133 1.2211 30.5133L1.22116 30.5133Z" id="Rectangle" fill="#FFFFFF" stroke="none" />
        <path d="M31.739 30.5134C32.4133 30.5134 32.9597 31.0598 32.9597 31.734L32.9597 31.734C32.9597 32.4083 32.4133 32.9547 31.739 32.9547L31.739 32.9547C31.0648 32.9547 30.5184 32.4083 30.5184 31.734L30.5184 31.734C30.5184 31.0598 31.0648 30.5134 31.739 30.5134L31.739 30.5134Z" id="Rectangle" fill="#FFFFFF" stroke="none" />
        <path d="M37.8424 30.5133C38.5167 30.5133 39.063 31.0597 39.063 31.7339L39.063 31.7339C39.063 32.4082 38.5167 32.9546 37.8424 32.9546L37.8424 32.9546C37.1682 32.9546 36.6218 32.4082 36.6218 31.7339L36.6218 31.7339C36.6218 31.0597 37.1682 30.5133 37.8424 30.5133L37.8424 30.5133Z" id="Rectangle" fill="#FFFFFF" stroke="none" />
        <path d="M25.633 30.5134C26.3072 30.5134 26.8536 31.0598 26.8536 31.734L26.8536 31.734C26.8536 32.4083 26.3072 32.9547 25.633 32.9547L25.6328 32.9547C24.9586 32.9547 24.4122 32.4083 24.4122 31.734L24.4122 31.734C24.4122 31.0598 24.9586 30.5134 25.6328 30.5134L25.633 30.5134Z" id="Rectangle" fill="#FFFFFF" stroke="none" />
        <path d="M19.5297 30.5133C20.2039 30.5133 20.7503 31.0597 20.7503 31.7339L20.7503 31.7339C20.7503 32.4082 20.2039 32.9546 19.5297 32.9546L19.5296 32.9546C18.8554 32.9546 18.309 32.4082 18.309 31.7339L18.309 31.7339C18.309 31.0597 18.8554 30.5133 19.5296 30.5133L19.5297 30.5133Z" id="Rectangle" fill="#FFFFFF" stroke="none" />
        <path d="M13.4259 30.5133C14.1001 30.5133 14.6465 31.0597 14.6465 31.7339L14.6465 31.7339C14.6465 32.4082 14.1001 32.9546 13.4259 32.9546L13.4257 32.9546C12.7515 32.9546 12.2051 32.4082 12.2051 31.7339L12.2051 31.7339C12.2051 31.0597 12.7515 30.5133 13.4257 30.5133L13.4259 30.5133Z" id="Rectangle" fill="#FFFFFF" stroke="none" />
        <path d="M7.32474 30.5134C7.99895 30.5134 8.54535 31.0598 8.54535 31.734L8.54535 31.734C8.54535 32.4083 7.99895 32.9547 7.32474 32.9547L7.32468 32.9547C6.65046 32.9547 6.10406 32.4083 6.10406 31.734L6.10406 31.734C6.10406 31.0598 6.65046 30.5134 7.32468 30.5134L7.32474 30.5134Z" id="Rectangle" fill="#FFFFFF" stroke="none" />
        <path d="M1.22122 36.6168C1.89544 36.6168 2.44183 37.1632 2.44183 37.8374L2.44183 37.8374C2.44183 38.5117 1.89544 39.058 1.22122 39.058L1.22116 39.058C0.546944 39.058 0.000549316 38.5117 0.000549316 37.8374L0.000549316 37.8374C0.000549316 37.1632 0.546944 36.6168 1.22116 36.6168L1.22122 36.6168Z" id="Rectangle" fill="#FFFFFF" stroke="none" />
        <path d="M31.739 36.6167C32.4133 36.6167 32.9597 37.1631 32.9597 37.8373L32.9597 37.8373C32.9597 38.5116 32.4133 39.058 31.739 39.058L31.739 39.058C31.0648 39.058 30.5184 38.5116 30.5184 37.8373L30.5184 37.8373C30.5184 37.1631 31.0648 36.6167 31.739 36.6167L31.739 36.6167Z" id="Rectangle" fill="#FFFFFF" stroke="none" />
        <path d="M37.8424 36.6167C38.5167 36.6167 39.063 37.1631 39.063 37.8373L39.063 37.8373C39.063 38.5116 38.5167 39.058 37.8424 39.058L37.8424 39.058C37.1682 39.058 36.6218 38.5116 36.6218 37.8373L36.6218 37.8373C36.6218 37.1631 37.1682 36.6167 37.8424 36.6167L37.8424 36.6167Z" id="Rectangle" fill="#FFFFFF" stroke="none" />
        <path d="M25.6329 36.6168C26.3071 36.6168 26.8535 37.1632 26.8535 37.8374L26.8535 37.8374C26.8535 38.5117 26.3071 39.058 25.6329 39.058L25.6328 39.058C24.9586 39.058 24.4122 38.5117 24.4122 37.8374L24.4122 37.8374C24.4122 37.1632 24.9586 36.6168 25.6328 36.6168L25.6329 36.6168Z" id="Rectangle" fill="#FFFFFF" stroke="none" />
        <path d="M19.5298 36.6168C20.204 36.6168 20.7504 37.1632 20.7504 37.8374L20.7504 37.8374C20.7504 38.5117 20.204 39.058 19.5298 39.058L19.5296 39.058C18.8554 39.058 18.309 38.5117 18.309 37.8374L18.309 37.8374C18.309 37.1632 18.8554 36.6168 19.5296 36.6168L19.5298 36.6168Z" id="Rectangle" fill="#FFFFFF" stroke="none" />
        <path d="M13.4259 36.6167C14.1001 36.6167 14.6465 37.1631 14.6465 37.8373L14.6465 37.8373C14.6465 38.5116 14.1001 39.058 13.4259 39.058L13.4257 39.058C12.7515 39.058 12.2051 38.5116 12.2051 37.8373L12.2051 37.8373C12.2051 37.1631 12.7515 36.6167 13.4257 36.6167L13.4259 36.6167Z" id="Rectangle" fill="#FFFFFF" stroke="none" />
        <path d="M7.32474 36.6167C7.99895 36.6167 8.54535 37.1631 8.54535 37.8373L8.54535 37.8373C8.54535 38.5116 7.99895 39.058 7.32474 39.058L7.32468 39.058C6.65046 39.058 6.10406 38.5116 6.10406 37.8373L6.10406 37.8373C6.10406 37.1631 6.65046 36.6167 7.32468 36.6167L7.32474 36.6167Z" id="Rectangle" fill="#FFFFFF" stroke="none" />
      </g>
    </g>
    <g id="Group" transform="matrix(1.0000006 0 0 1.0000006 226.28577 91.428085)">
      <path d="M0 0L57.1433 0L57.1433 57.1395L0 57.1395L0 0Z" id="Rectangle" fill="#3E7AB5" fill-rule="evenodd" stroke="none" />
      <path d="M43.0058 35.4833C43.0845 38.3227 41.5114 40.5132 38.2865 42.0548C35.8324 43.2424 32.5996 43.8441 28.5882 43.8598L28.5528 43.8598C24.5413 43.8441 21.3086 43.2424 18.8545 42.0548C15.6139 40.5132 14.0329 38.3227 14.1116 35.4833L14.1116 26.4579L12.6604 24.3107C12.4716 24.0276 12.3733 23.7169 12.3654 23.3787C12.3654 23.0326 12.448 22.7141 12.6132 22.423C13.3211 21.2275 14.261 20.0045 15.433 18.7539C15.7083 18.455 16.0426 18.2702 16.4359 18.1994C16.8291 18.1286 17.2067 18.1837 17.5685 18.3646C18.0955 18.632 18.6264 18.923 19.1613 19.2376L19.4562 18.9899L19.527 18.9545L20.1169 18.5179C20.0619 17.8258 20.0265 17.1101 20.0108 16.3707C20.0029 16.0168 20.0894 15.6904 20.2703 15.3915C20.4512 15.0926 20.6951 14.8645 21.0018 14.7072C22.2131 14.1016 23.6329 13.6179 25.261 13.2561C25.6307 13.1696 25.9965 13.2049 26.3583 13.3623C26.7201 13.5117 26.9993 13.7555 27.196 14.0937C27.5263 14.6443 27.8449 15.2342 28.1516 15.8634L28.541 15.8516L28.5882 15.8516L28.9893 15.8634C29.2882 15.2499 29.6028 14.66 29.9332 14.0937C30.1298 13.7634 30.4091 13.5196 30.7709 13.3623C31.1248 13.2049 31.4985 13.1696 31.8917 13.2561C33.5042 13.6179 34.92 14.1016 36.1392 14.7072C36.4459 14.8645 36.6937 15.0926 36.8825 15.3915C37.0555 15.6904 37.142 16.0207 37.142 16.3825L37.024 18.5297L37.5904 18.9309L37.6493 18.9663L37.9797 19.2376C38.5067 18.923 39.0376 18.632 39.5725 18.3646C39.9264 18.1837 40.3001 18.1286 40.6933 18.1994C41.0866 18.2702 41.4209 18.455 41.6962 18.7539C42.8603 19.9966 43.8002 21.2236 44.516 22.4348C44.6891 22.718 44.7716 23.0326 44.7638 23.3787C44.7638 23.7012 44.6733 24.0079 44.4924 24.2989C44.0047 25.0854 43.5131 25.809 43.0176 26.4697L43.0176 32.8288L43.0058 33.0294L43.0058 35.4833M41.189 33.4659L41.189 25.8798C41.7789 25.1405 42.3689 24.3068 42.9588 23.3787C42.3059 22.2775 41.4446 21.1488 40.3749 19.9926C39.5097 20.4252 38.6523 20.9247 37.8028 21.491C37.6377 21.3022 37.4253 21.1095 37.1657 20.9129L36.4932 20.4056L35.7971 19.9337L35.0892 19.4853C35.215 18.5336 35.2937 17.4875 35.3252 16.3471C34.224 15.8044 32.9419 15.3678 31.4789 15.0375C30.9755 15.8948 30.5075 16.8151 30.0749 17.7982L28.5647 17.6802L28.5411 17.6802L27.0544 17.7982C26.5982 16.7836 26.1263 15.8634 25.6386 15.0375C24.1756 15.3678 22.8935 15.8044 21.7923 16.3471C21.8238 17.4639 21.9064 18.51 22.0401 19.4853L21.3086 19.9337L20.6243 20.4056L19.9518 20.9129C19.6922 21.1095 19.4759 21.3022 19.3029 21.491C18.4612 20.9247 17.6078 20.4252 16.7426 19.9926C15.6729 21.1488 14.8116 22.2775 14.1587 23.3787C14.8194 24.4011 15.4054 25.2349 15.9167 25.8798L15.9167 33.4659L15.9639 33.4659L20.6479 33.9024C20.7659 33.9182 20.8681 33.9693 20.9546 34.0558C21.0333 34.1423 21.0805 34.2485 21.0962 34.3743L21.2378 36.4272L25.3201 36.7103L25.5914 34.8109C25.615 34.6929 25.674 34.5946 25.7684 34.5159C25.8628 34.4373 25.969 34.3979 26.087 34.3979L31.0305 34.3979C31.1485 34.3979 31.2547 34.4373 31.3491 34.5159C31.4435 34.5946 31.5025 34.6929 31.5261 34.8109L31.8092 36.7103L35.8797 36.4272L36.0331 34.3743C36.0331 34.2485 36.0763 34.1423 36.1629 34.0558C36.2494 33.9693 36.3516 33.9182 36.4696 33.9024L41.1536 33.4659L41.189 33.4659M24.7539 28.9476C24.7539 29.7184 24.4786 30.3831 23.928 30.9416C23.3774 31.4843 22.7128 31.7557 21.9341 31.7557C21.1554 31.7557 20.4907 31.4843 19.9401 30.9416C19.3974 30.3831 19.126 29.7184 19.126 28.9476C19.126 28.1767 19.3974 27.516 19.9401 26.9654C20.4907 26.4226 21.1554 26.1513 21.9341 26.1513C22.7128 26.1513 23.3774 26.4226 23.928 26.9654C24.4786 27.516 24.7539 28.1767 24.7539 28.9476M28.5531 32.0027C28.3092 32.0027 28.0968 31.9241 27.9159 31.7668C27.7429 31.6095 27.6564 31.4168 27.6564 31.1887L27.6564 28.605C27.6564 28.3769 27.7429 28.1842 27.9159 28.0269C28.0968 27.8617 28.3092 27.7792 28.5531 27.7792C28.8048 27.7792 29.0172 27.8617 29.1902 28.0269C29.3711 28.1842 29.4616 28.3769 29.4616 28.605L29.4616 31.1887C29.4616 31.4168 29.3711 31.6095 29.1902 31.7668C29.0172 31.9241 28.8048 32.0027 28.5531 32.0027M32.3637 28.9476C32.3637 28.1767 32.639 27.516 33.1896 26.9654C33.7402 26.4226 34.4048 26.1513 35.1835 26.1513C35.9622 26.1513 36.6268 26.4226 37.1774 26.9654C37.7201 27.516 37.9915 28.1767 37.9915 28.9476C37.9915 29.7184 37.7201 30.3831 37.1774 30.9416C36.6268 31.4843 35.9622 31.7557 35.1835 31.7557C34.4048 31.7557 33.7402 31.4843 33.1896 30.9416C32.639 30.3831 32.3637 29.7184 32.3637 28.9476M41.1891 34.4569L37.0006 34.8581L36.8473 36.9346C36.8473 37.0526 36.804 37.1549 36.7175 37.2414C36.6152 37.3358 36.5051 37.3869 36.3871 37.3948L31.4082 37.7487L31.3728 37.7487C31.2391 37.7487 31.129 37.7094 31.0425 37.6307C30.9481 37.5521 30.893 37.4459 30.8773 37.3122L30.5941 35.389L26.5355 35.389L26.2405 37.3122C26.2248 37.4459 26.1618 37.5521 26.0517 37.6307C25.9573 37.7172 25.8433 37.7566 25.7096 37.7487L20.7306 37.3948C20.6048 37.3869 20.4986 37.3358 20.4121 37.2414C20.3177 37.1549 20.2705 37.0526 20.2705 36.9346L20.1053 34.8581L15.9169 34.4569L15.9169 35.507C15.9169 37.6229 17.1518 39.2668 19.6216 40.4388C21.879 41.5163 24.8522 42.0591 28.5412 42.0669L28.5648 42.0669C32.2616 42.0591 35.2387 41.5163 37.4962 40.4388C39.9581 39.2668 41.1891 37.6229 41.1891 35.507L41.1891 34.4569" id="Outline" fill="#FFFFFF" fill-rule="evenodd" stroke="none" />
    </g>
    <g id="naiive_trans_dark" transform="matrix(1.0000006 0 0 1.0000006 740.5715 262.85715)">
      <path d="M0 0L57.1432 0L57.1432 57.1429L0 57.1429L0 0L0 0Z" id="Rectangle" fill="#000000" fill-rule="evenodd" stroke="none" />
      <path d="M14.2191 13.9785L28.6388 26.4868L43.0585 13.9969L45.6032 16.4802L45.6032 40.6732L43.0585 43.1645L28.6388 30.6562L14.232 43.1645L11.6744 41.4967L11.6744 16.4802L14.2191 13.9785L14.2191 13.9785ZM15.0673 38.5115L26.0197 29.0484L15.0673 19.5853L15.0673 38.5115L15.0673 38.5115L15.0673 38.5115ZM31.298 29.0484L42.2103 19.62L42.2103 38.4768L31.298 29.0484L31.298 29.0484L31.298 29.0484Z" id="Vector" fill="#FFFFFF" fill-rule="evenodd" stroke="none" />
    </g>
  </g>
</svg>