<svg width="1024" height="1024" viewBox="0 0 1024 1024" fill="none" xmlns="http://www.w3.org/2000/svg"><g id="Group"><path id="Rectangle" d="M849 0C945.663 0 1024 78.337 1024 175L1024 849C1024 945.663 945.663 1024 849 1024L175 1024C78.337 1024 0 945.663 0 849L0 175C0 78.337 78.337 0 175 0L849 0Z" fill="#131313"/><g id="icon" transform="translate(181.001 256)"><path id="Vector" d="M216.847 12.047C216.847 5.39301 211.454 0 204.8 0C204.8 0 102.4 0 102.4 0C95.746 0 90.353 5.39301 90.353 12.047C90.353 12.047 90.353 48.188 90.353 48.188C90.353 54.843 95.746 60.235 102.4 60.235C102.4 60.235 108.424 60.235 108.424 60.235L108.424 90.353C108.424 90.353 24.094 90.353 24.094 90.353C10.785 90.353 0 101.138 0 114.447C0 114.447 0 427.671 0 427.671C0 440.979 10.785 451.765 24.094 451.765C24.094 451.765 72.282 451.765 72.282 451.765C72.282 451.765 72.282 499.953 72.282 499.953C72.282 506.607 77.675 512 84.33 512C84.33 512 216.847 512 216.847 512C223.502 512 228.894 506.607 228.894 499.953C228.894 499.953 228.894 451.765 228.894 451.765L433.694 451.765C433.694 451.765 433.694 499.953 433.694 499.953C433.694 506.607 439.087 512 445.741 512C445.741 512 578.259 512 578.259 512C584.913 512 590.306 506.607 590.306 499.953C590.306 499.953 590.306 451.765 590.306 451.765C590.306 451.765 638.494 451.765 638.494 451.765C651.804 451.765 662.588 440.979 662.588 427.671C662.588 427.671 662.588 114.447 662.588 114.447C662.588 101.138 651.804 90.353 638.494 90.353C638.494 90.353 560.188 90.353 560.188 90.353L560.188 60.235C560.188 60.235 566.212 60.235 566.212 60.235C572.866 60.235 578.259 54.843 578.259 48.188C578.259 48.188 578.259 12.047 578.259 12.047C578.259 5.39301 572.866 0 566.212 0C566.212 0 463.812 0 463.812 0C457.158 0 451.765 5.39301 451.765 12.047C451.765 12.047 451.765 48.188 451.765 48.188C451.765 54.843 457.158 60.235 463.812 60.235C463.812 60.235 469.835 60.235 469.835 60.235L469.835 90.353L198.776 90.353L198.776 60.235C198.776 60.235 204.8 60.235 204.8 60.235C211.454 60.235 216.847 54.843 216.847 48.188C216.847 48.188 216.847 12.047 216.847 12.047L216.847 12.047C216.847 12.047 216.847 12.047 216.847 12.047ZM186.353 181C136.452 181 96 221.453 96 271.353C96 321.253 136.452 361.706 186.353 361.706C236.254 361.706 276.706 321.253 276.706 271.353C276.706 221.453 236.254 181 186.353 181C186.353 181 186.353 181 186.353 181C186.353 181 186.353 181 186.353 181ZM476.353 181C426.452 181 386 221.453 386 271.353C386 321.253 426.452 361.706 476.353 361.706C526.254 361.706 566.706 321.253 566.706 271.353C566.706 221.453 526.254 181 476.353 181C476.353 181 476.353 181 476.353 181C476.353 181 476.353 181 476.353 181Z" fill="#EEEEEE" fill-rule="evenodd"/></g></g></svg>
