<?xml version="1.0" encoding="utf-8"?>
<svg width="1024px" height="1024px" viewBox="0 0 1024 1024" version="1.1" xmlns:xlink="http://www.w3.org/1999/xlink" xmlns="http://www.w3.org/2000/svg">
  <g id="project_icon">
    <path d="M0 0L1024 0L1024 1024L0 1024L0 0Z" id="Rectangle" fill="#000000" fill-rule="evenodd" stroke="none" />
    <path d="M398.847 268.047C398.847 261.393 393.454 256 386.8 256L284.4 256C277.746 256 272.353 261.393 272.353 268.047L272.353 304.188C272.353 310.843 277.746 316.235 284.4 316.235L290.424 316.235L290.424 346.353L206.094 346.353C192.785 346.353 182 357.138 182 370.447L182 683.671C182 696.979 192.785 707.765 206.094 707.765L254.282 707.765L254.282 755.953C254.282 762.607 259.675 768 266.33 768L398.847 768C405.502 768 410.894 762.607 410.894 755.953L410.894 707.765L615.694 707.765L615.694 755.953C615.694 762.607 621.087 768 627.741 768L760.259 768C766.913 768 772.306 762.607 772.306 755.953L772.306 707.765L820.494 707.765C833.804 707.765 844.588 696.979 844.588 683.671L844.588 370.447C844.588 357.138 833.804 346.353 820.494 346.353L742.188 346.353L742.188 316.235L748.212 316.235C754.866 316.235 760.259 310.843 760.259 304.188L760.259 268.047C760.259 261.393 754.866 256 748.212 256L645.812 256C639.158 256 633.765 261.393 633.765 268.047L633.765 304.188C633.765 310.843 639.158 316.235 645.812 316.235L651.835 316.235L651.835 346.353L380.776 346.353L380.776 316.235L386.8 316.235C393.454 316.235 398.847 310.843 398.847 304.188L398.847 268.047L398.847 268.047ZM368.73 436.706C318.829 436.706 278.376 477.159 278.376 527.059C278.376 576.959 318.829 617.412 368.73 617.412C418.63 617.412 459.082 576.959 459.082 527.059C459.082 477.159 418.63 436.706 368.73 436.706L368.73 436.706ZM657.859 436.705C607.958 436.705 567.506 477.158 567.506 527.058C567.506 576.958 607.958 617.411 657.859 617.411C707.76 617.411 748.212 576.958 748.212 527.058C748.212 477.158 707.76 436.705 657.859 436.705L657.859 436.705Z" id="Vector" fill="#FFFFFF" fill-rule="evenodd" stroke="none" />
    <path d="M903.809 884L932.068 912.246L960.191 884.136L981.911 905.845L953.788 933.956L982 962.155L960.28 983.864L932.068 955.665L903.72 984L882 962.29L910.348 933.956L882.089 905.71L903.809 884L903.809 884Z" id="Vector" fill="#FFFFFF" fill-rule="evenodd" stroke="none" />
  </g>
</svg>