<?xml version="1.0" encoding="utf-8"?>
<svg width="1024px" height="414px" viewBox="0 0 1024 414" version="1.1" xmlns:xlink="http://www.w3.org/1999/xlink" xmlns="http://www.w3.org/2000/svg">
  <g id="logo">
    <path d="M0 0L1024 0L1024 414L0 414L0 0Z" id="Rectangle" fill="#448AFF" fill-opacity="0" fill-rule="evenodd" stroke="none" />
    <g id="Group" transform="translate(283.4286 91.42857)">
      <g id="Group" transform="scale(1.0000006 1.0000006)">
        <path d="M0 0L228.582 0L228.582 228.576L0 228.576L0 0Z" id="Rectangle" fill="#000000" fill-rule="evenodd" stroke="none" />
        <path d="M89.4844 59.8328C89.4844 58.3474 88.2806 57.1438 86.7953 57.1438L63.9359 57.1438C62.4504 57.1438 61.2467 58.3474 61.2467 59.8328L61.2467 67.9002C61.2467 69.3857 62.4504 70.5894 63.9359 70.5894L65.2805 70.5894L65.2805 77.3124L46.4556 77.3124C43.4847 77.3124 41.0774 79.7199 41.0774 82.6907L41.0774 152.608C41.0774 155.579 43.4847 157.986 46.4556 157.986L57.213 157.986L57.213 168.743C57.213 170.228 58.4167 171.432 59.9021 171.432L89.4844 171.432C90.9697 171.432 92.1734 170.228 92.1734 168.743L92.1734 157.986L137.89 157.986L137.89 168.743C137.89 170.228 139.094 171.432 140.579 171.432L170.162 171.432C171.647 171.432 172.851 170.228 172.851 168.743L172.851 157.986L183.607 157.986C186.578 157.986 188.985 155.579 188.985 152.608L188.985 82.6907C188.985 79.7199 186.578 77.3124 183.607 77.3124L166.128 77.3124L166.128 70.5894L167.473 70.5894C168.958 70.5894 170.162 69.3857 170.162 67.9002L170.162 59.8328C170.162 58.3474 168.958 57.1438 167.473 57.1438L144.613 57.1438C143.128 57.1438 141.924 58.3474 141.924 59.8328L141.924 67.9002C141.924 69.3857 143.128 70.5894 144.613 70.5894L145.958 70.5894L145.958 77.3124L85.4507 77.3124L85.4507 70.5894L86.7953 70.5894C88.2806 70.5894 89.4844 69.3857 89.4844 67.9002L89.4844 59.8328L89.4844 59.8328ZM82.7619 97.4813C71.6215 97.4813 62.5916 106.511 62.5916 117.65C62.5916 128.789 71.6215 137.819 82.7619 137.819C93.9011 137.819 102.93 128.789 102.93 117.65C102.93 106.511 93.9011 97.4813 82.7619 97.4813L82.7619 97.4813ZM147.303 97.4813C136.162 97.4813 127.133 106.511 127.133 117.65C127.133 128.789 136.162 137.819 147.303 137.819C158.442 137.819 167.472 128.789 167.472 117.65C167.472 106.511 158.442 97.4813 147.303 97.4813L147.303 97.4813Z" id="Vector" fill="#FFFFFF" fill-rule="evenodd" stroke="none" />
      </g>
      <g id="Group" transform="matrix(1.0000006 0 0 1.0000006 228.57104 0)">
        <path d="M0 0L228.577 0L228.577 228.576L0 228.576L0 0Z" id="Rectangle" fill="#000000" fill-rule="evenodd" stroke="none" />
        <path d="M70.0805 36.0105L114.236 80.1446L158.179 36.2223L192.116 70.1436L148.174 114.066L192.254 158.125L158.318 192.047L114.236 147.986L69.9417 192.258L36.0057 158.337L80.2979 114.066L36.1445 69.9318L70.0805 36.0105L70.0805 36.0105Z" id="Vector" fill="#FFFFFF" fill-rule="evenodd" stroke="none" />
      </g>
    </g>
    <g id="Group" transform="matrix(1.0000006 0 0 1.0000006 683.4284 319.99994)">
      <path d="M0 0L57.1437 0L57.1437 57.1428L0 57.1428L0 0Z" id="Rectangle" fill="#000000" fill-rule="evenodd" stroke="none" />
      <g id="Group" transform="matrix(1.0000001 0 0 1.0000001 9.007782 9.005325)">
        <path d="M1.22064 9.15527e-05C1.89487 9.15527e-05 2.44128 0.546499 2.44128 1.22073L2.44128 1.22076C2.44128 1.895 1.89487 2.4414 1.22064 2.4414L1.22064 2.4414C0.546408 2.4414 0 1.895 0 1.22076L0 1.22073C0 0.546499 0.546408 9.15527e-05 1.22064 9.15527e-05Z" id="Rectangle" fill="#FFFFFF" stroke="none" />
        <path d="M31.7381 0C32.4123 0 32.9587 0.546408 32.9587 1.22064L32.9587 1.22067C32.9587 1.8949 32.4123 2.44131 31.7381 2.44131L31.7381 2.44131C31.0639 2.44131 30.5175 1.8949 30.5175 1.22067L30.5175 1.22064C30.5175 0.546408 31.0639 0 31.7381 0Z" id="Rectangle" fill="#FFFFFF" stroke="none" />
        <path d="M37.8417 9.15527e-05C38.5159 9.15527e-05 39.0623 0.546499 39.0623 1.22073L39.0623 1.22076C39.0623 1.895 38.5159 2.4414 37.8417 2.4414L37.8417 2.4414C37.1674 2.4414 36.621 1.895 36.621 1.22076L36.621 1.22073C36.621 0.546499 37.1674 9.15527e-05 37.8417 9.15527e-05Z" id="Rectangle" fill="#FFFFFF" stroke="none" />
        <path d="M25.6322 9.15527e-05C26.3065 9.15527e-05 26.8529 0.546506 26.8529 1.22075L26.8529 1.22075C26.8529 1.89499 26.3065 2.4414 25.6322 2.4414L25.6322 2.4414C24.958 2.4414 24.4116 1.89499 24.4116 1.22075L24.4116 1.22075C24.4116 0.546506 24.958 9.15527e-05 25.6322 9.15527e-05L25.6322 9.15527e-05Z" id="Rectangle" fill="#FFFFFF" stroke="none" />
        <path d="M19.5289 9.15527e-05C20.2032 9.15527e-05 20.7496 0.546506 20.7496 1.22075L20.7496 1.22075C20.7496 1.89499 20.2032 2.4414 19.5289 2.4414L19.5289 2.4414C18.8546 2.4414 18.3082 1.89499 18.3082 1.22075L18.3082 1.22075C18.3082 0.546506 18.8546 9.15527e-05 19.5289 9.15527e-05L19.5289 9.15527e-05Z" id="Rectangle" fill="#FFFFFF" stroke="none" />
        <path d="M13.4252 9.15527e-05C14.0994 9.15527e-05 14.6458 0.546506 14.6458 1.22075L14.6458 1.22075C14.6458 1.89499 14.0994 2.4414 13.4252 2.4414L13.4251 2.4414C12.7509 2.4414 12.2045 1.89499 12.2045 1.22075L12.2045 1.22075C12.2045 0.546506 12.7509 9.15527e-05 13.4251 9.15527e-05L13.4252 9.15527e-05Z" id="Rectangle" fill="#FFFFFF" stroke="none" />
        <path d="M7.32397 0C7.99821 0 8.54461 0.546408 8.54461 1.22064L8.54461 1.22067C8.54461 1.8949 7.99821 2.44131 7.32397 2.44131L7.32397 2.44131C6.64974 2.44131 6.10333 1.8949 6.10333 1.22067L6.10333 1.22064C6.10333 0.546408 6.64974 0 7.32397 0Z" id="Rectangle" fill="#FFFFFF" stroke="none" />
        <path d="M1.22116 6.09976C1.89538 6.09976 2.44177 6.64616 2.44177 7.32037L2.44177 7.32037C2.44177 7.99459 1.89538 8.54098 1.22116 8.54098L1.2211 8.54098C0.546883 8.54098 0.000488281 7.99459 0.000488281 7.32037L0.000488281 7.32037C0.000488281 6.64616 0.546883 6.09976 1.2211 6.09976L1.22116 6.09976Z" id="Rectangle" fill="#FFFFFF" stroke="none" />
        <path d="M31.7391 6.09988C32.4133 6.09988 32.9597 6.64628 32.9597 7.32049L32.9597 7.32049C32.9597 7.99471 32.4133 8.54111 31.7391 8.54111L31.739 8.54111C31.0648 8.54111 30.5184 7.99471 30.5184 7.32049L30.5184 7.32049C30.5184 6.64628 31.0648 6.09988 31.739 6.09988L31.7391 6.09988Z" id="Rectangle" fill="#FFFFFF" stroke="none" />
        <path d="M37.8424 6.09982C38.5167 6.09982 39.063 6.64622 39.063 7.32043L39.063 7.32043C39.063 7.99465 38.5167 8.54104 37.8424 8.54104L37.8424 8.54104C37.1682 8.54104 36.6218 7.99465 36.6218 7.32043L36.6218 7.32043C36.6218 6.64622 37.1682 6.09982 37.8424 6.09982L37.8424 6.09982Z" id="Rectangle" fill="#FFFFFF" stroke="none" />
        <path d="M25.6328 6.09976C26.3071 6.09976 26.8535 6.64616 26.8535 7.32037L26.8535 7.32037C26.8535 7.99459 26.3071 8.54098 25.6328 8.54098L25.6327 8.54098C24.9585 8.54098 24.4121 7.99459 24.4121 7.32037L24.4121 7.32037C24.4121 6.64616 24.9585 6.09976 25.6327 6.09976L25.6328 6.09976Z" id="Rectangle" fill="#FFFFFF" stroke="none" />
        <path d="M19.5297 6.09982C20.2039 6.09982 20.7503 6.64622 20.7503 7.32043L20.7503 7.32043C20.7503 7.99465 20.2039 8.54104 19.5297 8.54104L19.5296 8.54104C18.8554 8.54104 18.309 7.99465 18.309 7.32043L18.309 7.32043C18.309 6.64622 18.8554 6.09982 19.5296 6.09982L19.5297 6.09982Z" id="Rectangle" fill="#FFFFFF" stroke="none" />
        <path d="M13.4259 6.09982C14.1001 6.09982 14.6465 6.64622 14.6465 7.32043L14.6465 7.32043C14.6465 7.99465 14.1001 8.54104 13.4259 8.54104L13.4257 8.54104C12.7515 8.54104 12.2051 7.99465 12.2051 7.32043L12.2051 7.32043C12.2051 6.64622 12.7515 6.09982 13.4257 6.09982L13.4259 6.09982Z" id="Rectangle" fill="#FFFFFF" stroke="none" />
        <path d="M7.32474 6.09982C7.99895 6.09982 8.54535 6.64622 8.54535 7.32043L8.54535 7.32043C8.54535 7.99465 7.99895 8.54104 7.32474 8.54104L7.32468 8.54104C6.65046 8.54104 6.10406 7.99465 6.10406 7.32043L6.10406 7.32043C6.10406 6.64622 6.65046 6.09982 7.32468 6.09982L7.32474 6.09982Z" id="Rectangle" fill="#FFFFFF" stroke="none" />
        <path d="M1.22122 12.203C1.89544 12.203 2.44183 12.7494 2.44183 13.4236L2.44183 13.4236C2.44183 14.0978 1.89544 14.6442 1.22122 14.6442L1.22116 14.6442C0.546944 14.6442 0.000549316 14.0978 0.000549316 13.4236L0.000549316 13.4236C0.000549316 12.7494 0.546944 12.203 1.22116 12.203L1.22122 12.203Z" id="Rectangle" fill="#FFFFFF" stroke="none" />
        <path d="M31.739 12.203C32.4133 12.203 32.9597 12.7494 32.9597 13.4236L32.9597 13.4236C32.9597 14.0978 32.4133 14.6442 31.739 14.6442L31.739 14.6442C31.0648 14.6442 30.5184 14.0978 30.5184 13.4236L30.5184 13.4236C30.5184 12.7494 31.0648 12.203 31.739 12.203L31.739 12.203Z" id="Rectangle" fill="#FFFFFF" stroke="none" />
        <path d="M37.8426 12.203C38.5168 12.203 39.0632 12.7494 39.0632 13.4236L39.0632 13.4236C39.0632 14.0978 38.5168 14.6442 37.8426 14.6442L37.8425 14.6442C37.1683 14.6442 36.6219 14.0978 36.6219 13.4236L36.6219 13.4236C36.6219 12.7494 37.1683 12.203 37.8425 12.203L37.8426 12.203Z" id="Rectangle" fill="#FFFFFF" stroke="none" />
        <path d="M25.6329 12.2031C26.3071 12.2031 26.8535 12.7495 26.8535 13.4237L26.8535 13.4237C26.8535 14.0979 26.3071 14.6443 25.6329 14.6443L25.6328 14.6443C24.9586 14.6443 24.4122 14.0979 24.4122 13.4237L24.4122 13.4237C24.4122 12.7495 24.9586 12.2031 25.6328 12.2031L25.6329 12.2031Z" id="Rectangle" fill="#FFFFFF" stroke="none" />
        <path d="M19.5296 12.2029C20.2038 12.2029 20.7502 12.7493 20.7502 13.4236L20.7502 13.4236C20.7502 14.0978 20.2038 14.6442 19.5296 14.6442L19.5294 14.6442C18.8552 14.6442 18.3088 14.0978 18.3088 13.4236L18.3088 13.4236C18.3088 12.7493 18.8552 12.2029 19.5294 12.2029L19.5296 12.2029Z" id="Rectangle" fill="#FFFFFF" stroke="none" />
        <path d="M13.4259 12.203C14.1001 12.203 14.6465 12.7494 14.6465 13.4236L14.6465 13.4236C14.6465 14.0978 14.1001 14.6442 13.4259 14.6442L13.4257 14.6442C12.7515 14.6442 12.2051 14.0978 12.2051 13.4236L12.2051 13.4236C12.2051 12.7494 12.7515 12.203 13.4257 12.203L13.4259 12.203Z" id="Rectangle" fill="#FFFFFF" stroke="none" />
        <path d="M7.32474 12.203C7.99895 12.203 8.54535 12.7494 8.54535 13.4236L8.54535 13.4236C8.54535 14.0978 7.99895 14.6442 7.32474 14.6442L7.32468 14.6442C6.65046 14.6442 6.10406 14.0978 6.10406 13.4236L6.10406 13.4236C6.10406 12.7494 6.65046 12.203 7.32468 12.203L7.32474 12.203Z" id="Rectangle" fill="#FFFFFF" stroke="none" />
        <path d="M1.22122 18.3065C1.89544 18.3065 2.44183 18.8529 2.44183 19.5271L2.44183 19.5271C2.44183 20.2013 1.89544 20.7477 1.22122 20.7477L1.22116 20.7477C0.546944 20.7477 0.000549316 20.2013 0.000549316 19.5271L0.000549316 19.5271C0.000549316 18.8529 0.546944 18.3065 1.22116 18.3065L1.22122 18.3065Z" id="Rectangle" fill="#FFFFFF" stroke="none" />
        <path d="M31.739 18.3065C32.4133 18.3065 32.9597 18.8529 32.9597 19.5271L32.9597 19.5271C32.9597 20.2013 32.4133 20.7477 31.739 20.7477L31.739 20.7477C31.0648 20.7477 30.5184 20.2013 30.5184 19.5271L30.5184 19.5271C30.5184 18.8529 31.0648 18.3065 31.739 18.3065L31.739 18.3065Z" id="Rectangle" fill="#FFFFFF" stroke="none" />
        <path d="M37.8426 18.3066C38.5168 18.3066 39.0632 18.853 39.0632 19.5272L39.0632 19.5272C39.0632 20.2014 38.5168 20.7478 37.8426 20.7478L37.8425 20.7478C37.1683 20.7478 36.6219 20.2014 36.6219 19.5272L36.6219 19.5272C36.6219 18.853 37.1683 18.3066 37.8425 18.3066L37.8426 18.3066Z" id="Rectangle" fill="#FFFFFF" stroke="none" />
        <path d="M25.6329 18.3065C26.3071 18.3065 26.8535 18.8529 26.8535 19.5271L26.8535 19.5271C26.8535 20.2013 26.3071 20.7477 25.6329 20.7477L25.6328 20.7477C24.9586 20.7477 24.4122 20.2013 24.4122 19.5271L24.4122 19.5271C24.4122 18.8529 24.9586 18.3065 25.6328 18.3065L25.6329 18.3065Z" id="Rectangle" fill="#FFFFFF" stroke="none" />
        <path d="M19.5297 18.3066C20.2039 18.3066 20.7503 18.853 20.7503 19.5272L20.7503 19.5272C20.7503 20.2014 20.2039 20.7478 19.5297 20.7478L19.5296 20.7478C18.8554 20.7478 18.309 20.2014 18.309 19.5272L18.309 19.5272C18.309 18.853 18.8554 18.3066 19.5296 18.3066L19.5297 18.3066Z" id="Rectangle" fill="#FFFFFF" stroke="none" />
        <path d="M13.4257 18.3065C14.1 18.3065 14.6464 18.8529 14.6464 19.5271L14.6464 19.5271C14.6464 20.2013 14.1 20.7477 13.4257 20.7477L13.4256 20.7477C12.7514 20.7477 12.205 20.2013 12.205 19.5271L12.205 19.5271C12.205 18.8529 12.7514 18.3065 13.4256 18.3065L13.4257 18.3065Z" id="Rectangle" fill="#FFFFFF" stroke="none" />
        <path d="M7.32474 18.3065C7.99895 18.3065 8.54535 18.8529 8.54535 19.5271L8.54535 19.5271C8.54535 20.2013 7.99895 20.7477 7.32474 20.7477L7.32468 20.7477C6.65046 20.7477 6.10406 20.2013 6.10406 19.5271L6.10406 19.5271C6.10406 18.8529 6.65046 18.3065 7.32468 18.3065L7.32474 18.3065Z" id="Rectangle" fill="#FFFFFF" stroke="none" />
        <path d="M1.22122 24.41C1.89544 24.41 2.44183 24.9564 2.44183 25.6306L2.44183 25.6306C2.44183 26.3049 1.89544 26.8513 1.22122 26.8513L1.22116 26.8513C0.546944 26.8513 0.000549316 26.3049 0.000549316 25.6306L0.000549316 25.6306C0.000549316 24.9564 0.546944 24.41 1.22116 24.41L1.22122 24.41Z" id="Rectangle" fill="#FFFFFF" stroke="none" />
        <path d="M31.7391 24.4101C32.4133 24.4101 32.9597 24.9565 32.9597 25.6307L32.9597 25.6307C32.9597 26.3049 32.4133 26.8513 31.7391 26.8513L31.739 26.8513C31.0648 26.8513 30.5184 26.3049 30.5184 25.6307L30.5184 25.6307C30.5184 24.9565 31.0648 24.4101 31.739 24.4101L31.7391 24.4101Z" id="Rectangle" fill="#FFFFFF" stroke="none" />
        <path d="M37.8424 24.4101C38.5167 24.4101 39.063 24.9565 39.063 25.6307L39.063 25.6307C39.063 26.3049 38.5167 26.8513 37.8424 26.8513L37.8424 26.8513C37.1682 26.8513 36.6218 26.3049 36.6218 25.6307L36.6218 25.6307C36.6218 24.9565 37.1682 24.4101 37.8424 24.4101L37.8424 24.4101Z" id="Rectangle" fill="#FFFFFF" stroke="none" />
        <path d="M25.6329 24.41C26.3071 24.41 26.8535 24.9564 26.8535 25.6306L26.8535 25.6306C26.8535 26.3049 26.3071 26.8513 25.6329 26.8513L25.6328 26.8513C24.9586 26.8513 24.4122 26.3049 24.4122 25.6306L24.4122 25.6306C24.4122 24.9564 24.9586 24.41 25.6328 24.41L25.6329 24.41Z" id="Rectangle" fill="#FFFFFF" stroke="none" />
        <path d="M19.5297 24.41C20.2039 24.41 20.7503 24.9564 20.7503 25.6306L20.7503 25.6306C20.7503 26.3049 20.2039 26.8513 19.5297 26.8513L19.5296 26.8513C18.8554 26.8513 18.309 26.3049 18.309 25.6306L18.309 25.6306C18.309 24.9564 18.8554 24.41 19.5296 24.41L19.5297 24.41Z" id="Rectangle" fill="#FFFFFF" stroke="none" />
        <path d="M13.4259 24.4101C14.1001 24.4101 14.6465 24.9565 14.6465 25.6307L14.6465 25.6307C14.6465 26.3049 14.1001 26.8513 13.4259 26.8513L13.4257 26.8513C12.7515 26.8513 12.2051 26.3049 12.2051 25.6307L12.2051 25.6307C12.2051 24.9565 12.7515 24.4101 13.4257 24.4101L13.4259 24.4101Z" id="Rectangle" fill="#FFFFFF" stroke="none" />
        <path d="M7.32468 24.4099C7.99889 24.4099 8.54529 24.9563 8.54529 25.6306L8.54529 25.6306C8.54529 26.3048 7.99889 26.8512 7.32468 26.8512L7.32461 26.8512C6.6504 26.8512 6.104 26.3048 6.104 25.6306L6.104 25.6306C6.104 24.9563 6.6504 24.4099 7.32461 24.4099L7.32468 24.4099Z" id="Rectangle" fill="#FFFFFF" stroke="none" />
        <path d="M1.22116 30.5133C1.89538 30.5133 2.44177 31.0597 2.44177 31.7339L2.44177 31.7339C2.44177 32.4081 1.89538 32.9545 1.22116 32.9545L1.2211 32.9545C0.546883 32.9545 0.000488281 32.4081 0.000488281 31.7339L0.000488281 31.7339C0.000488281 31.0597 0.546883 30.5133 1.2211 30.5133L1.22116 30.5133Z" id="Rectangle" fill="#FFFFFF" stroke="none" />
        <path d="M31.739 30.5134C32.4133 30.5134 32.9597 31.0598 32.9597 31.734L32.9597 31.734C32.9597 32.4083 32.4133 32.9547 31.739 32.9547L31.739 32.9547C31.0648 32.9547 30.5184 32.4083 30.5184 31.734L30.5184 31.734C30.5184 31.0598 31.0648 30.5134 31.739 30.5134L31.739 30.5134Z" id="Rectangle" fill="#FFFFFF" stroke="none" />
        <path d="M37.8424 30.5133C38.5167 30.5133 39.063 31.0597 39.063 31.7339L39.063 31.7339C39.063 32.4082 38.5167 32.9546 37.8424 32.9546L37.8424 32.9546C37.1682 32.9546 36.6218 32.4082 36.6218 31.7339L36.6218 31.7339C36.6218 31.0597 37.1682 30.5133 37.8424 30.5133L37.8424 30.5133Z" id="Rectangle" fill="#FFFFFF" stroke="none" />
        <path d="M25.633 30.5134C26.3072 30.5134 26.8536 31.0598 26.8536 31.734L26.8536 31.734C26.8536 32.4083 26.3072 32.9547 25.633 32.9547L25.6328 32.9547C24.9586 32.9547 24.4122 32.4083 24.4122 31.734L24.4122 31.734C24.4122 31.0598 24.9586 30.5134 25.6328 30.5134L25.633 30.5134Z" id="Rectangle" fill="#FFFFFF" stroke="none" />
        <path d="M19.5297 30.5133C20.2039 30.5133 20.7503 31.0597 20.7503 31.7339L20.7503 31.7339C20.7503 32.4082 20.2039 32.9546 19.5297 32.9546L19.5296 32.9546C18.8554 32.9546 18.309 32.4082 18.309 31.7339L18.309 31.7339C18.309 31.0597 18.8554 30.5133 19.5296 30.5133L19.5297 30.5133Z" id="Rectangle" fill="#FFFFFF" stroke="none" />
        <path d="M13.4259 30.5133C14.1001 30.5133 14.6465 31.0597 14.6465 31.7339L14.6465 31.7339C14.6465 32.4082 14.1001 32.9546 13.4259 32.9546L13.4257 32.9546C12.7515 32.9546 12.2051 32.4082 12.2051 31.7339L12.2051 31.7339C12.2051 31.0597 12.7515 30.5133 13.4257 30.5133L13.4259 30.5133Z" id="Rectangle" fill="#FFFFFF" stroke="none" />
        <path d="M7.32474 30.5134C7.99895 30.5134 8.54535 31.0598 8.54535 31.734L8.54535 31.734C8.54535 32.4083 7.99895 32.9547 7.32474 32.9547L7.32468 32.9547C6.65046 32.9547 6.10406 32.4083 6.10406 31.734L6.10406 31.734C6.10406 31.0598 6.65046 30.5134 7.32468 30.5134L7.32474 30.5134Z" id="Rectangle" fill="#FFFFFF" stroke="none" />
        <path d="M1.22122 36.6168C1.89544 36.6168 2.44183 37.1632 2.44183 37.8374L2.44183 37.8374C2.44183 38.5117 1.89544 39.058 1.22122 39.058L1.22116 39.058C0.546944 39.058 0.000549316 38.5117 0.000549316 37.8374L0.000549316 37.8374C0.000549316 37.1632 0.546944 36.6168 1.22116 36.6168L1.22122 36.6168Z" id="Rectangle" fill="#FFFFFF" stroke="none" />
        <path d="M31.739 36.6167C32.4133 36.6167 32.9597 37.1631 32.9597 37.8373L32.9597 37.8373C32.9597 38.5116 32.4133 39.058 31.739 39.058L31.739 39.058C31.0648 39.058 30.5184 38.5116 30.5184 37.8373L30.5184 37.8373C30.5184 37.1631 31.0648 36.6167 31.739 36.6167L31.739 36.6167Z" id="Rectangle" fill="#FFFFFF" stroke="none" />
        <path d="M37.8424 36.6167C38.5167 36.6167 39.063 37.1631 39.063 37.8373L39.063 37.8373C39.063 38.5116 38.5167 39.058 37.8424 39.058L37.8424 39.058C37.1682 39.058 36.6218 38.5116 36.6218 37.8373L36.6218 37.8373C36.6218 37.1631 37.1682 36.6167 37.8424 36.6167L37.8424 36.6167Z" id="Rectangle" fill="#FFFFFF" stroke="none" />
        <path d="M25.6329 36.6168C26.3071 36.6168 26.8535 37.1632 26.8535 37.8374L26.8535 37.8374C26.8535 38.5117 26.3071 39.058 25.6329 39.058L25.6328 39.058C24.9586 39.058 24.4122 38.5117 24.4122 37.8374L24.4122 37.8374C24.4122 37.1632 24.9586 36.6168 25.6328 36.6168L25.6329 36.6168Z" id="Rectangle" fill="#FFFFFF" stroke="none" />
        <path d="M19.5298 36.6168C20.204 36.6168 20.7504 37.1632 20.7504 37.8374L20.7504 37.8374C20.7504 38.5117 20.204 39.058 19.5298 39.058L19.5296 39.058C18.8554 39.058 18.309 38.5117 18.309 37.8374L18.309 37.8374C18.309 37.1632 18.8554 36.6168 19.5296 36.6168L19.5298 36.6168Z" id="Rectangle" fill="#FFFFFF" stroke="none" />
        <path d="M13.4259 36.6167C14.1001 36.6167 14.6465 37.1631 14.6465 37.8373L14.6465 37.8373C14.6465 38.5116 14.1001 39.058 13.4259 39.058L13.4257 39.058C12.7515 39.058 12.2051 38.5116 12.2051 37.8373L12.2051 37.8373C12.2051 37.1631 12.7515 36.6167 13.4257 36.6167L13.4259 36.6167Z" id="Rectangle" fill="#FFFFFF" stroke="none" />
        <path d="M7.32474 36.6167C7.99895 36.6167 8.54535 37.1631 8.54535 37.8373L8.54535 37.8373C8.54535 38.5116 7.99895 39.058 7.32474 39.058L7.32468 39.058C6.65046 39.058 6.10406 38.5116 6.10406 37.8373L6.10406 37.8373C6.10406 37.1631 6.65046 36.6167 7.32468 36.6167L7.32474 36.6167Z" id="Rectangle" fill="#FFFFFF" stroke="none" />
      </g>
    </g>
    <g id="Group" transform="matrix(1.0000006 0 0 1.0000006 226.28577 91.42857)">
      <path d="M0 0L57.1433 0L57.1433 57.1395L0 57.1395L0 0Z" id="Rectangle" fill="#3E7AB5" fill-rule="evenodd" stroke="none" />
      <path d="M43.0166 35.4905C43.0952 38.3309 41.5216 40.5221 38.2956 42.0642C35.8407 43.2523 32.6068 43.8542 28.5939 43.8699L28.5585 43.8699C24.5457 43.8542 21.3118 43.2523 18.8569 42.0642C15.6151 40.5221 14.0336 38.3309 14.1123 35.4905L14.1123 26.462L12.6606 24.3141C12.4718 24.0308 12.3734 23.72 12.3655 23.3817C12.3655 23.0355 12.4481 22.7169 12.6134 22.4257C13.3215 21.2298 14.2618 20.0063 15.4342 18.7553C15.7096 18.4563 16.044 18.2714 16.4374 18.2006C16.8308 18.1298 17.2085 18.1849 17.5704 18.3659C18.0976 18.6334 18.6287 18.9245 19.1638 19.2392L19.4588 18.9914L19.5296 18.956L20.1198 18.5193C20.0647 17.8269 20.0293 17.1109 20.0135 16.3713C20.0057 16.0173 20.0922 15.6907 20.2732 15.3918C20.4542 15.0928 20.6981 14.8646 21.0049 14.7072C22.2167 14.1014 23.6369 13.6175 25.2656 13.2556C25.6354 13.1691 26.0013 13.2045 26.3633 13.3618C26.7252 13.5113 27.0045 13.7552 27.2012 14.0935C27.5317 14.6443 27.8504 15.2344 28.1572 15.8638L28.5467 15.852L28.5939 15.852L28.9952 15.8638C29.2942 15.2501 29.6089 14.66 29.9394 14.0935C30.1361 13.7631 30.4154 13.5192 30.7774 13.3618C31.1315 13.2045 31.5052 13.1691 31.8986 13.2556C33.5116 13.6175 34.9279 14.1014 36.1475 14.7072C36.4544 14.8646 36.7022 15.0928 36.8911 15.3918C37.0642 15.6907 37.1507 16.0212 37.1507 16.3831L37.0327 18.5311L37.5992 18.9324L37.6582 18.9678L37.9887 19.2392C38.5159 18.9245 39.047 18.6334 39.582 18.3659C39.9361 18.1849 40.3099 18.1298 40.7033 18.2006C41.0967 18.2714 41.4311 18.4563 41.7065 18.7553C42.871 19.9985 43.8113 21.2259 44.5273 22.4375C44.7004 22.7208 44.783 23.0355 44.7751 23.3817C44.7751 23.7043 44.6846 24.0111 44.5037 24.3023C44.0158 25.0891 43.5241 25.8129 43.0284 26.4738L43.0284 32.8351L43.0166 33.0357L43.0166 35.4905M41.1992 33.4725L41.1992 25.8838C41.7893 25.1442 42.3794 24.3102 42.9695 23.3818C42.3165 22.2802 41.4549 21.1512 40.3848 19.9946C39.5193 20.4273 38.6616 20.9269 37.8118 21.4934C37.6466 21.3046 37.4341 21.1118 37.1745 20.9151L36.5017 20.4076L35.8054 19.9356L35.0972 19.4871C35.2231 18.535 35.3018 17.4886 35.3333 16.3477C34.2317 15.8048 32.9492 15.3682 31.4857 15.0377C30.9821 15.8953 30.5139 16.8159 30.0812 17.7994L28.5704 17.6814L28.5468 17.6814L27.0597 17.7994C26.6033 16.7844 26.1312 15.8638 25.6434 15.0377C24.1799 15.3682 22.8973 15.8048 21.7958 16.3477C21.8272 17.465 21.9098 18.5114 22.0436 19.4871L21.3119 19.9356L20.6273 20.4076L19.9546 20.9151C19.6949 21.1118 19.4785 21.3046 19.3054 21.4934C18.4635 20.9269 17.6098 20.4273 16.7443 19.9946C15.6742 21.1512 14.8126 22.2802 14.1595 23.3818C14.8204 24.4046 15.4066 25.2386 15.9181 25.8838L15.9181 33.4725L15.9653 33.4725L20.6509 33.9092C20.7689 33.9249 20.8712 33.9761 20.9578 34.0626C21.0365 34.1492 21.0837 34.2554 21.0994 34.3813L21.241 36.4349L25.3247 36.7181L25.5962 34.818C25.6198 34.7 25.6788 34.6016 25.7732 34.5229C25.8676 34.4442 25.9739 34.4049 26.0919 34.4049L31.0372 34.4049C31.1552 34.4049 31.2614 34.4442 31.3558 34.5229C31.4503 34.6016 31.5093 34.7 31.5329 34.818L31.8161 36.7181L35.888 36.4349L36.0414 34.3813C36.0414 34.2554 36.0847 34.1492 36.1713 34.0626C36.2578 33.9761 36.3601 33.9249 36.4781 33.9092L41.1638 33.4725L41.1992 33.4725M24.7582 28.9527C24.7582 29.7238 24.4828 30.3887 23.932 30.9473C23.3812 31.4902 22.7164 31.7617 21.9374 31.7617C21.1584 31.7617 20.4935 31.4902 19.9427 30.9473C19.3998 30.3887 19.1284 29.7238 19.1284 28.9527C19.1284 28.1815 19.3998 27.5206 19.9427 26.9698C20.4935 26.4269 21.1584 26.1554 21.9374 26.1554C22.7164 26.1554 23.3812 26.4269 23.932 26.9698C24.4828 27.5206 24.7582 28.1815 24.7582 28.9527M28.5587 32.009C28.3148 32.009 28.1023 31.9303 27.9214 31.7729C27.7482 31.6156 27.6617 31.4228 27.6617 31.1946L27.6617 28.61C27.6617 28.3819 27.7482 28.1891 27.9214 28.0317C28.1023 27.8665 28.3148 27.7839 28.5587 27.7839C28.8106 27.7839 29.023 27.8665 29.1961 28.0317C29.3771 28.1891 29.4676 28.3819 29.4676 28.61L29.4676 31.1946C29.4676 31.4228 29.3771 31.6156 29.1961 31.7729C29.023 31.9303 28.8106 32.009 28.5587 32.009M32.3706 28.9527C32.3706 28.1815 32.646 27.5206 33.1968 26.9698C33.7476 26.4269 34.4124 26.1554 35.1914 26.1554C35.9703 26.1554 36.6352 26.4269 37.186 26.9698C37.7289 27.5206 38.0003 28.1815 38.0003 28.9527C38.0003 29.7238 37.7289 30.3887 37.186 30.9473C36.6352 31.4902 35.9703 31.7617 35.1914 31.7617C34.4124 31.7617 33.7476 31.4902 33.1968 30.9473C32.646 30.3887 32.3706 29.7238 32.3706 28.9527M41.1991 34.4641L37.0092 34.8654L36.8558 36.9426C36.8558 37.0606 36.8125 37.1629 36.7259 37.2495C36.6236 37.3439 36.5135 37.395 36.3955 37.4029L31.4148 37.757L31.3794 37.757C31.2456 37.757 31.1355 37.7177 31.0489 37.639C30.9545 37.5603 30.8994 37.4541 30.8837 37.3203L30.6004 35.3965L26.5404 35.3965L26.2453 37.3203C26.2296 37.4541 26.1666 37.5603 26.0565 37.639C25.9621 37.7255 25.848 37.7649 25.7142 37.757L20.7336 37.4029C20.6077 37.395 20.5014 37.3439 20.4149 37.2495C20.3205 37.1629 20.2733 37.0606 20.2733 36.9426L20.108 34.8654L15.9181 34.4641L15.9181 35.5145C15.9181 37.6311 17.1535 39.2756 19.6241 40.448C21.8823 41.5259 24.8566 42.0689 28.5468 42.0767L28.5704 42.0767C32.2685 42.0689 35.2467 41.5259 37.5049 40.448C39.9677 39.2756 41.1991 37.6311 41.1991 35.5145L41.1991 34.4641" id="Outline" fill="#FFFFFF" fill-rule="evenodd" stroke="none" />
    </g>
    <g id="naiive_trans_dark" transform="matrix(1.0000006 0 0 1.0000006 740.5715 262.85715)">
      <path d="M0 0L57.1432 0L57.1432 57.1429L0 57.1429L0 0L0 0Z" id="Rectangle" fill="#000000" fill-rule="evenodd" stroke="none" />
      <path d="M14.2191 13.9785L28.6388 26.4868L43.0585 13.9969L45.6032 16.4802L45.6032 40.6732L43.0585 43.1645L28.6388 30.6562L14.232 43.1645L11.6744 41.4967L11.6744 16.4802L14.2191 13.9785L14.2191 13.9785ZM15.0673 38.5115L26.0197 29.0484L15.0673 19.5853L15.0673 38.5115L15.0673 38.5115L15.0673 38.5115ZM31.298 29.0484L42.2103 19.62L42.2103 38.4768L31.298 29.0484L31.298 29.0484L31.298 29.0484Z" id="Vector" fill="#FFFFFF" fill-rule="evenodd" stroke="none" />
    </g>
  </g>
</svg>